<?xml version="1.0" encoding="UTF-8"?>
<svg width="68px" height="68px" viewBox="0 0 68 68" version="1.1" xmlns="http://www.w3.org/2000/svg" xmlns:xlink="http://www.w3.org/1999/xlink">
    <!-- Generator: sketchtool 42 (36781) - http://www.bohemiancoding.com/sketch -->
    <title>104C5BB8-C8E3-4C02-81A1-F4FF9B85316C</title>
    <desc>Created with sketchtool.</desc>
    <defs></defs>
    <g id="Symbols" stroke="none" stroke-width="1" fill="none" fill-rule="evenodd">
        <g id="Logo-Copy">
            <g id="Group-30" transform="translate(0.000000, 0.415700)">
                <path d="M33.5771,0.5917 C34.3691,0.5917 35.0141,0.6027 35.6601,0.5847 C35.8271,0.5797 35.9311,0.6937 36.0731,0.7147 C36.5911,0.7917 37.1101,0.8587 37.6281,0.9287 C38.1661,1.0017 38.7031,1.0867 39.2401,1.1697 C39.9261,1.2747 40.6041,1.4157 41.2801,1.5657 C41.8741,1.6977 42.4631,1.8577 43.0461,2.0307 C43.7201,2.2307 44.3921,2.4427 45.0541,2.6797 C45.7811,2.9397 46.4991,3.2237 47.2061,3.5387 C47.8901,3.8427 48.5661,4.1647 49.2291,4.5117 C50.1791,5.0067 51.1051,5.5427 52.0021,6.1287 C52.7971,6.6467 53.5751,7.1917 54.3181,7.7797 C54.8921,8.2357 55.4591,8.7017 56.0041,9.1947 C56.4731,9.6177 56.9261,10.0567 57.3831,10.4917 C57.8291,10.9177 58.2251,11.3887 58.6641,11.8207 C58.8001,11.9537 58.8001,12.0527 58.6551,12.1977 C56.9091,13.9347 55.1691,15.6777 53.4281,17.4197 C53.2711,17.5767 53.2641,17.6887 53.4061,17.8477 C53.8891,18.3887 54.3151,18.9747 54.7341,19.5647 C55.3941,20.4957 55.9891,21.4687 56.5151,22.4807 C56.8211,23.0687 57.1071,23.6667 57.3591,24.2827 C57.5091,24.6487 57.6671,25.0137 57.8071,25.3837 C58.0561,26.0417 58.2621,26.7147 58.4541,27.3927 C58.5731,27.8087 58.6781,28.2267 58.7761,28.6457 C58.9121,29.2337 59.0121,29.8297 59.1171,30.4247 C59.2051,30.9277 59.2201,31.4417 59.2951,31.9457 C59.3601,32.3797 59.3961,32.8177 59.3981,33.2477 C59.4021,33.8907 59.4571,34.5337 59.3881,35.1797 C59.3691,35.3597 59.3711,35.5597 59.3691,35.7507 C59.3661,36.3467 59.2601,36.9347 59.2091,37.5267 C59.1341,38.3927 58.9571,39.2417 58.7711,40.0867 C58.6511,40.6317 58.5131,41.1757 58.3351,41.7107 C58.1751,42.1897 58.0331,42.6757 57.8581,43.1517 C57.6031,43.8437 57.3211,44.5237 57.0141,45.1957 C56.7011,45.8767 56.3401,46.5317 55.9861,47.1907 C55.8951,47.3597 55.7721,47.5107 55.6811,47.6787 C55.5881,47.8487 55.4991,47.8137 55.3891,47.7037 C54.9041,47.2167 54.4171,46.7307 53.9311,46.2457 C53.5591,45.8727 53.1881,45.4997 52.8141,45.1297 C52.6831,45.0017 52.6631,44.8977 52.7671,44.7187 C53.1481,44.0617 53.4731,43.3737 53.7631,42.6707 C53.9271,42.2717 54.0761,41.8677 54.2201,41.4617 C54.4071,40.9327 54.5581,40.3927 54.7091,39.8527 C54.8251,39.4427 54.8941,39.0247 55.0031,38.6137 C55.1021,38.2437 55.1481,37.8587 55.2001,37.4767 C55.2791,36.8957 55.3491,36.3137 55.4071,35.7307 C55.4311,35.4877 55.4131,35.2397 55.4131,34.9937 C55.4131,34.4747 55.4121,33.9557 55.4131,33.4367 C55.4141,32.8667 55.2961,32.3087 55.2521,31.7437 C55.1921,30.9717 55.0241,30.2197 54.8621,29.4677 C54.7281,28.8527 54.5611,28.2447 54.3571,27.6487 C54.2151,27.2347 54.0801,26.8187 53.9201,26.4107 C53.7731,26.0367 53.5971,25.6747 53.4341,25.3067 C53.2431,24.8727 53.0351,24.4467 52.8041,24.0317 C52.5211,23.5237 52.2441,23.0127 51.9081,22.5357 C51.6991,22.2377 51.5101,21.9257 51.2971,21.6317 C50.9571,21.1627 50.6001,20.7077 50.2271,20.2627 C49.6771,19.6087 49.0611,19.0197 48.4571,18.4187 C48.2361,18.1987 47.9941,17.9987 47.7551,17.7997 C47.6101,17.6777 47.6011,17.5947 47.7461,17.4517 C49.4841,15.7247 51.2131,13.9917 52.9451,12.2597 C53.1601,12.0447 53.1691,12.0317 52.9451,11.8327 C52.4501,11.3917 51.9281,10.9827 51.3981,10.5837 C50.8281,10.1537 50.2381,9.7507 49.6371,9.3647 C49.0181,8.9687 48.3871,8.5937 47.7371,8.2497 C46.9941,7.8567 46.2391,7.4907 45.4701,7.1507 C44.6561,6.7907 43.8271,6.4777 42.9851,6.1957 C42.0641,5.8857 41.1301,5.6237 40.1771,5.4217 C39.6881,5.3177 39.2021,5.1827 38.7091,5.1157 C38.2731,5.0557 37.8441,4.9517 37.4011,4.9217 C36.7601,4.8787 36.1231,4.7897 35.4841,4.7197 C35.4641,4.7177 35.4421,4.7177 35.4211,4.7177 C34.6311,4.7317 33.8401,4.6197 33.0521,4.6837 C32.4811,4.7297 31.9091,4.6767 31.3411,4.7597 C30.5231,4.8797 29.7001,4.9457 28.8821,5.0807 C28.1221,5.2067 27.3671,5.3517 26.6211,5.5307 C25.8711,5.7107 25.1291,5.9307 24.3951,6.1777 C23.8051,6.3777 23.2181,6.5847 22.6401,6.8147 C22.1211,7.0217 21.6141,7.2577 21.1041,7.4877 C20.6471,7.6947 20.1981,7.9177 19.7581,8.1537 C19.1601,8.4757 18.5571,8.7927 17.9981,9.1837 C17.8131,9.3137 17.6201,9.4337 17.4231,9.5437 C17.3431,9.5877 17.2521,9.5707 17.1761,9.4927 C16.8861,9.1997 16.5971,8.9047 16.2941,8.6237 C16.0441,8.3917 15.8101,8.1417 15.5671,7.9037 C15.3041,7.6447 15.0321,7.3907 14.7831,7.1157 C14.7791,7.1117 14.7801,7.1017 14.7751,7.0967 C14.4291,6.7257 14.4321,6.7297 14.8571,6.4457 C15.4781,6.0287 16.1171,5.6397 16.7611,5.2587 C17.3871,4.8887 18.0201,4.5317 18.6721,4.2167 C19.5951,3.7697 20.5241,3.3347 21.4901,2.9767 C22.1061,2.7487 22.7221,2.5217 23.3461,2.3137 C24.5291,1.9177 25.7391,1.6167 26.9571,1.3577 C27.7031,1.1997 28.4561,1.0657 29.2131,0.9807 C29.9401,0.8997 30.6671,0.8187 31.3801,0.6677 C32.1621,0.5027 32.9441,0.6647 33.5771,0.5917" id="Fill-1" fill="#59B947"></path>
                <path d="M63.3286,34.3373 C63.3286,33.9093 63.3396,33.4813 63.3266,33.0533 C63.3076,32.4443 63.2276,31.8393 63.1716,31.2333 C63.1276,30.7503 63.0406,30.2753 62.9896,29.7953 C62.9546,29.4813 62.8836,29.1713 62.8286,28.8613 C62.6996,28.1453 62.5386,27.4363 62.3506,26.7343 C62.1416,25.9563 61.8956,25.1853 61.6366,24.4213 C61.4496,23.8703 61.2256,23.3313 60.9976,22.7953 C60.7836,22.2913 60.5556,21.7913 60.3096,21.3013 C59.9926,20.6693 59.6646,20.0423 59.2986,19.4353 C59.0396,19.0063 58.7976,18.5693 58.4956,18.1673 C58.3766,18.0073 58.4756,17.8843 58.5916,17.7693 C59.4116,16.9513 60.2296,16.1323 61.0476,15.3143 C61.0576,15.3043 61.0676,15.2943 61.0786,15.2843 C61.2206,15.1513 61.3326,15.1673 61.4336,15.3253 C61.7676,15.8463 62.1146,16.3583 62.4326,16.8883 C62.7536,17.4233 63.0696,17.9623 63.3646,18.5123 C63.6666,19.0763 63.9746,19.6393 64.2326,20.2233 C64.5196,20.8733 64.8096,21.5233 65.0616,22.1903 C65.3136,22.8563 65.5466,23.5283 65.7696,24.2033 C66.1486,25.3493 66.4286,26.5223 66.6856,27.6993 C66.8216,28.3163 66.8906,28.9483 66.9926,29.5733 C67.1206,30.3653 67.1726,31.1663 67.2526,31.9633 C67.2736,32.1723 67.2846,32.3793 67.2846,32.5873 C67.2866,33.2733 67.3446,33.9563 67.3326,34.6423 C67.3226,35.2503 67.2916,35.8583 67.2746,36.4653 C67.2616,36.9443 67.1726,37.4273 67.1326,37.9063 C67.0906,38.4183 67.0166,38.9233 66.9466,39.4293 C66.8886,39.8513 66.8226,40.2733 66.7346,40.6903 C66.5916,41.3743 66.4406,42.0573 66.2696,42.7343 C66.1196,43.3313 65.9486,43.9243 65.7666,44.5123 C65.6336,44.9423 65.4546,45.3593 65.3196,45.7903 C65.1816,46.2283 65.0096,46.6533 64.8336,47.0753 C64.6226,47.5813 64.4226,48.0933 64.1656,48.5803 C64.0086,48.8763 63.8856,49.1903 63.7246,49.4853 C63.5046,49.8883 63.3056,50.3023 63.0846,50.7043 C62.8626,51.1083 62.6316,51.5063 62.3906,51.8983 C62.1386,52.3073 61.8776,52.7113 61.6066,53.1083 C61.2676,53.6013 60.9256,54.0923 60.5646,54.5683 C60.2216,55.0193 59.8686,55.4613 59.5046,55.8973 C58.7806,56.7633 58.0196,57.5953 57.2136,58.3853 C56.8606,58.7323 56.4886,59.0573 56.1266,59.3943 C56.0366,59.4783 55.9566,59.4763 55.8736,59.3883 C55.8406,59.3533 55.8056,59.3183 55.7706,59.2833 C54.0436,57.5573 52.3166,55.8303 50.5896,54.1053 C50.4246,53.9393 50.3116,53.9323 50.1476,54.0883 C49.7306,54.4833 49.2626,54.8153 48.8036,55.1573 C47.9926,55.7633 47.1386,56.3043 46.2546,56.7943 C45.7036,57.1003 45.1466,57.3943 44.5726,57.6583 C43.9326,57.9533 43.2836,58.2273 42.6256,58.4793 C42.1916,58.6443 41.7466,58.7833 41.3046,58.9273 C40.6466,59.1423 39.9766,59.3133 39.3016,59.4653 C38.7186,59.5963 38.1306,59.7013 37.5396,59.7923 C36.8506,59.8973 36.1586,59.9843 35.4636,60.0373 C34.5006,60.1103 33.5336,60.0993 32.5676,60.0783 C32.0486,60.0673 31.5296,60.0153 31.0146,59.9543 C30.3716,59.8793 29.7326,59.7803 29.0946,59.6743 C28.1916,59.5233 27.3066,59.3073 26.4306,59.0573 C25.7736,58.8693 25.1206,58.6553 24.4866,58.3943 C23.9746,58.1843 23.4516,57.9993 22.9526,57.7613 C22.2106,57.4063 21.4716,57.0413 20.7616,56.6253 C20.6156,56.5393 20.4696,56.4443 20.3236,56.3543 C20.1606,56.2533 20.1906,56.1693 20.3006,56.0613 C20.4356,55.9283 20.5686,55.7933 20.7026,55.6593 C21.4026,54.9593 22.1056,54.2633 22.7996,53.5593 C22.9896,53.3653 23.0496,53.3203 23.3416,53.4793 C23.8596,53.7603 24.3876,54.0193 24.9286,54.2543 C25.6396,54.5643 26.3596,54.8413 27.0986,55.0783 C27.9546,55.3543 28.8266,55.5623 29.7056,55.7413 C30.3736,55.8783 31.0576,55.9243 31.7356,56.0073 C32.7746,56.1363 33.8166,56.0863 34.8556,56.0723 C35.4676,56.0663 36.0776,55.9453 36.6876,55.8743 C37.4246,55.7873 38.1486,55.6313 38.8706,55.4593 C39.4836,55.3123 40.0876,55.1303 40.6856,54.9363 C41.2326,54.7583 41.7656,54.5333 42.2946,54.3073 C43.1346,53.9473 43.9456,53.5313 44.7306,53.0653 C45.4396,52.6433 46.1256,52.1843 46.7816,51.6833 C47.3706,51.2323 47.9336,50.7523 48.4796,50.2493 C49.1016,49.6773 49.6866,49.0753 50.2186,48.4193 C50.3216,48.2923 50.4396,48.2623 50.5656,48.3953 C50.5996,48.4303 50.6346,48.4643 50.6696,48.4993 C52.3816,50.2113 54.0936,51.9223 55.8056,53.6343 C56.0036,53.8333 56.0336,53.8163 56.2186,53.5913 C56.5456,53.1973 56.8706,52.8023 57.1846,52.3993 C57.5156,51.9763 57.8326,51.5423 58.1396,51.1023 C58.6446,50.3733 59.1156,49.6213 59.5446,48.8473 C59.9116,48.1883 60.2536,47.5153 60.5736,46.8303 C60.8726,46.1913 61.1516,45.5443 61.4016,44.8873 C61.6526,44.2303 61.8756,43.5623 62.0766,42.8853 C62.2406,42.3333 62.3936,41.7793 62.5286,41.2213 C62.6996,40.5073 62.8496,39.7893 62.9546,39.0613 C63.0506,38.3993 63.1366,37.7363 63.2126,37.0703 C63.3156,36.1603 63.3376,35.2503 63.3286,34.3373" id="Fill-3" fill="#F05427"></path>
                <path d="M33.6513,64.0004 C34.0583,64.0004 34.4653,64.0094 34.8723,63.9974 C35.4813,63.9804 36.0843,63.9084 36.6893,63.8424 C37.1003,63.7984 37.5143,63.7724 37.9233,63.7054 C38.6453,63.5854 39.3633,63.4504 40.0803,63.3004 C40.8893,63.1294 41.6853,62.9144 42.4713,62.6714 C42.9643,62.5194 43.4523,62.3464 43.9383,62.1664 C45.0413,61.7574 46.1163,61.2884 47.1623,60.7554 C48.0693,60.2924 48.9533,59.7864 49.8003,59.2224 C49.9763,59.1044 50.0853,59.1104 50.2253,59.2514 C51.0513,60.0824 51.8813,60.9094 52.7093,61.7384 C52.8583,61.8884 52.8443,61.9844 52.6743,62.1054 C51.8573,62.6914 50.9913,63.2004 50.1213,63.7004 C49.7093,63.9384 49.2883,64.1614 48.8633,64.3724 C48.2783,64.6634 47.6933,64.9574 47.0913,65.2114 C46.5153,65.4544 45.9353,65.6904 45.3473,65.9084 C44.8173,66.1044 44.2803,66.2814 43.7453,66.4584 C43.1063,66.6714 42.4563,66.8544 41.8013,67.0124 C40.9923,67.2064 40.1783,67.3964 39.3573,67.5234 C38.8083,67.6094 38.2563,67.6944 37.7023,67.7554 C36.6453,67.8684 35.5903,67.9614 34.5263,67.9714 C34.0883,67.9764 33.6453,68.0194 33.2093,67.9894 C32.6923,67.9554 32.1733,67.9974 31.6603,67.9504 C31.0083,67.8924 30.3553,67.8294 29.7043,67.7594 C29.1293,67.6974 28.5613,67.5884 27.9863,67.5254 C27.4853,67.4724 26.9953,67.3304 26.4993,67.2284 C25.4773,67.0164 24.4713,66.7384 23.4773,66.4254 C22.8553,66.2294 22.2343,66.0224 21.6303,65.7684 C21.2673,65.6144 20.8913,65.4914 20.5293,65.3354 C20.1303,65.1644 19.7293,64.9924 19.3423,64.7924 C18.8923,64.5604 18.4283,64.3544 17.9773,64.1234 C17.1673,63.7114 16.3933,63.2354 15.6223,62.7554 C14.8323,62.2624 14.0683,61.7294 13.3293,61.1634 C12.8323,60.7824 12.3433,60.3874 11.8663,59.9794 C10.9643,59.2074 10.1023,58.3964 9.2793,57.5424 C9.0673,57.3224 8.8643,57.0924 8.6473,56.8754 C8.5293,56.7574 8.5263,56.6344 8.6463,56.5174 C8.9773,56.1894 9.3103,55.8654 9.6403,55.5374 C9.9133,55.2664 10.1803,54.9904 10.4523,54.7184 C10.8063,54.3614 11.1623,54.0074 11.5173,53.6504 C11.7993,53.3674 12.0683,53.0674 12.3683,52.8044 C12.6003,52.6004 12.8003,52.3664 13.0263,52.1564 C13.2413,51.9574 13.4423,51.7384 13.6483,51.5284 C13.7423,51.4344 13.8473,51.3494 13.9443,51.2584 C14.0603,51.1494 14.0673,51.0264 13.9653,50.9094 C13.2833,50.1174 12.6693,49.2734 12.0983,48.3994 C11.7363,47.8454 11.3823,47.2824 11.0693,46.6994 C10.3973,45.4484 9.8003,44.1624 9.3473,42.8134 C9.1483,42.2184 8.9443,41.6254 8.7913,41.0194 C8.6133,40.3164 8.4593,39.6104 8.3263,38.8974 C8.2183,38.3234 8.1743,37.7424 8.0533,37.1714 C8.0193,37.0124 8.0123,36.8394 8.0123,36.6764 C8.0103,36.2854 7.9813,35.8954 7.9513,35.5074 C7.9043,34.9054 7.9053,34.3044 7.9283,33.7054 C7.9613,32.8494 8.0073,31.9934 8.1183,31.1394 C8.2383,30.2124 8.4023,29.2964 8.6023,28.3874 C8.7343,27.7824 8.9253,27.1894 9.1053,26.5964 C9.3833,25.6694 9.7353,24.7684 10.1303,23.8874 C10.5423,22.9674 10.9973,22.0674 11.5363,21.2134 C11.5763,21.1494 11.5773,21.0734 11.6383,21.0144 C11.7683,20.8894 11.8623,20.8874 11.9703,21.0354 C11.9833,21.0514 11.9973,21.0674 12.0113,21.0824 C12.8463,21.9134 13.6793,22.7474 14.5183,23.5744 C14.6533,23.7074 14.6403,23.8434 14.5623,23.9794 C14.1193,24.7564 13.7593,25.5694 13.4253,26.3974 C13.1773,27.0124 12.9633,27.6364 12.7713,28.2674 C12.5713,28.9254 12.4353,29.6024 12.2883,30.2754 C12.1603,30.8614 12.1413,31.4594 12.0123,32.0434 C11.9803,32.1884 11.9733,32.3454 11.9653,32.4964 C11.9163,33.4474 11.8903,34.3994 11.9273,35.3504 C11.9523,35.9894 12.0383,36.6264 12.1113,37.2644 C12.2043,38.0644 12.3893,38.8424 12.5583,39.6244 C12.6693,40.1364 12.8373,40.6364 12.9943,41.1364 C13.1843,41.7404 13.4223,42.3284 13.6693,42.9124 C13.8613,43.3634 14.0663,43.8084 14.2943,44.2414 C14.5043,44.6404 14.7213,45.0354 14.9523,45.4224 C15.3383,46.0684 15.7503,46.6964 16.2003,47.3024 C16.5493,47.7714 16.9063,48.2374 17.2983,48.6674 C17.7863,49.2024 18.2623,49.7524 18.8233,50.2194 C19.1003,50.4494 19.3503,50.7114 19.6303,50.9404 C19.7003,50.9984 19.7153,51.1084 19.6473,51.1964 C19.6133,51.2404 19.5693,51.2774 19.5293,51.3164 C18.5963,52.2494 17.6643,53.1834 16.7313,54.1154 C16.1073,54.7394 15.4873,55.3684 14.8553,55.9844 C14.6793,56.1564 14.5303,56.3554 14.3183,56.4924 C14.1863,56.5774 14.1993,56.7274 14.3393,56.8404 C14.7513,57.1734 15.1573,57.5134 15.5783,57.8354 C16.1333,58.2614 16.6953,58.6764 17.2783,59.0634 C18.0253,59.5594 18.7933,60.0204 19.5833,60.4414 C20.2313,60.7884 20.8853,61.1184 21.5583,61.4144 C22.0743,61.6414 22.5883,61.8744 23.1143,62.0754 C23.9213,62.3854 24.7423,62.6584 25.5753,62.8894 C26.2523,63.0764 26.9303,63.2674 27.6183,63.3964 C28.1563,63.4994 28.7023,63.5774 29.2393,63.6784 C29.8793,63.7994 30.5253,63.8174 31.1653,63.9064 C31.8473,64.0014 32.5393,64.0234 33.2303,64.0004 C33.3703,63.9954 33.5113,64.0004 33.6513,64.0004" id="Fill-5" fill="#FCB918"></path>
                <g id="Group-9" transform="translate(0.000000, 8.000000)" fill="#35A1DA">
                    <path d="M4.0497,24.5394 C3.9637,25.3924 3.9987,26.3094 4.0097,27.2254 C4.0207,28.0974 4.0937,28.9654 4.1987,29.8334 C4.2767,30.4754 4.3757,31.1134 4.4797,31.7494 C4.5547,32.2114 4.6577,32.6724 4.7717,33.1294 C4.9517,33.8554 5.1337,34.5834 5.3637,35.2944 C5.5147,35.7584 5.6737,36.2234 5.8517,36.6804 C6.1197,37.3704 6.3937,38.0594 6.7027,38.7324 C6.9037,39.1714 7.1187,39.6024 7.3447,40.0274 C7.6077,40.5204 7.8837,41.0074 8.1657,41.4894 C8.3647,41.8314 8.5737,42.1684 8.7997,42.4924 C8.9107,42.6524 8.8997,42.7724 8.7607,42.8824 C8.3547,43.2054 8.0407,43.6204 7.6517,43.9634 C7.3577,44.2224 7.1177,44.5434 6.8277,44.8094 C6.6177,45.0014 6.4147,45.1944 6.2287,45.4114 C6.1307,45.5254 6.0117,45.5434 5.9057,45.3804 C5.5197,44.7844 5.1287,44.1934 4.7567,43.5884 C4.3847,42.9824 4.0557,42.3544 3.7167,41.7324 C3.4747,41.2864 3.2687,40.8184 3.0587,40.3544 C2.8937,39.9904 2.7207,39.6284 2.5697,39.2594 C2.3497,38.7254 2.1437,38.1854 1.9447,37.6434 C1.6097,36.7304 1.3307,35.7984 1.0797,34.8594 C0.8857,34.1354 0.7367,33.3994 0.5887,32.6634 C0.4827,32.1334 0.4167,31.5974 0.3117,31.0674 C0.2517,30.7674 0.2627,30.4484 0.2137,30.1414 C0.1167,29.5324 0.0957,28.9174 0.0557,28.3044 C0.0337,27.9724 0.0037,27.6384 0.0037,27.3034 C0.0057,26.6644 -0.0083,26.0264 0.0077,25.3884 C0.0237,24.8114 0.0627,24.2344 0.0967,23.6594 C0.1357,23.0134 0.2177,22.3684 0.3107,21.7284 C0.4067,21.0604 0.5227,20.3924 0.6597,19.7284 C0.7857,19.1214 0.9177,18.5144 1.0637,17.9124 C1.1927,17.3774 1.3567,16.8504 1.5257,16.3264 C1.7377,15.6674 1.9477,15.0054 2.2017,14.3624 C2.4687,13.6864 2.7397,13.0114 3.0597,12.3544 C3.2817,11.8994 3.4847,11.4314 3.7147,10.9794 C4.1777,10.0684 4.6857,9.1804 5.2357,8.3204 C5.8557,7.3514 6.5107,6.4054 7.2377,5.5134 C7.6297,5.0314 8.0287,4.5544 8.4367,4.0844 C9.1627,3.2494 9.9717,2.4974 10.7427,1.7064 C10.8787,1.5684 11.0287,1.4444 11.1747,1.3154 C11.2667,1.2344 11.3627,1.2394 11.4517,1.3224 C11.4877,1.3554 11.5207,1.3924 11.5547,1.4274 C13.2667,3.1394 14.9787,4.8504 16.6907,6.5624 C16.9247,6.7954 16.9647,6.7814 17.2157,6.5644 C17.5327,6.2904 17.8697,6.0404 18.2007,5.7844 C18.8077,5.3154 19.4377,4.8794 20.0927,4.4824 C20.5067,4.2314 20.9237,3.9874 21.3457,3.7514 C21.9047,3.4384 22.4807,3.1554 23.0667,2.8944 C23.8417,2.5504 24.6287,2.2364 25.4367,1.9694 C25.9737,1.7924 26.5107,1.6234 27.0547,1.4734 C27.6857,1.2984 28.3247,1.1614 28.9707,1.0484 C29.3277,0.9864 29.6817,0.8964 30.0407,0.8614 C30.4187,0.8254 30.7907,0.7514 31.1677,0.7214 C32.3517,0.6264 33.5407,0.6034 34.7277,0.6414 C35.4707,0.6644 36.2147,0.7244 36.9557,0.8294 C37.5127,0.9074 38.0677,0.9944 38.6207,1.0964 C39.3577,1.2334 40.0837,1.4144 40.8057,1.6204 C41.7087,1.8784 42.5907,2.1944 43.4597,2.5514 C43.9997,2.7724 44.5267,3.0194 45.0507,3.2764 C45.5707,3.5324 46.0757,3.8114 46.5837,4.0884 C46.7157,4.1604 46.8487,4.2294 46.9767,4.3094 C47.1187,4.3974 47.1287,4.5184 47.0117,4.6354 C46.1637,5.4834 45.3127,6.3304 44.4687,7.1834 C44.3327,7.3204 44.2037,7.3584 44.0347,7.2554 C43.4477,6.8954 42.8177,6.6194 42.1897,6.3424 C41.5367,6.0544 40.8627,5.8174 40.1807,5.6034 C39.7147,5.4564 39.2467,5.3014 38.7697,5.2014 C38.0207,5.0444 37.2717,4.8884 36.5087,4.7924 C35.7647,4.6984 35.0187,4.6724 34.2737,4.6184 C33.5797,4.5684 32.8947,4.6474 32.2057,4.6444 C31.6377,4.6424 31.0717,4.7614 30.5067,4.8394 C30.0107,4.9074 29.5207,5.0014 29.0317,5.1014 C28.6187,5.1854 28.2087,5.2904 27.8037,5.4084 C27.0797,5.6194 26.3647,5.8584 25.6627,6.1384 C24.9847,6.4074 24.3247,6.7104 23.6757,7.0404 C23.2987,7.2324 22.9267,7.4334 22.5667,7.6524 C22.0887,7.9444 21.6197,8.2494 21.1607,8.5724 C20.6497,8.9324 20.1547,9.3114 19.6747,9.7074 C19.1087,10.1724 18.5897,10.6904 18.0737,11.2124 C17.7367,11.5544 17.4197,11.9144 17.0997,12.2714 C16.9647,12.4224 16.8457,12.4144 16.7167,12.2714 C16.3027,11.8144 15.8487,11.3994 15.4197,10.9594 C15.0837,10.6164 14.7317,10.2884 14.4087,9.9314 C14.1457,9.6404 13.8297,9.3964 13.5617,9.1094 C13.2277,8.7524 12.8737,8.4154 12.5317,8.0664 C12.2717,7.8004 12.0157,7.5264 11.7347,7.2794 C11.6527,7.2074 11.5937,7.1094 11.5157,7.0324 C11.3597,6.8754 11.2907,6.8924 11.1467,7.0644 C10.7757,7.5084 10.3987,7.9474 10.0557,8.4144 C9.7557,8.8224 9.4567,9.2314 9.1637,9.6444 C8.5417,10.5194 7.9957,11.4424 7.4847,12.3844 C7.1777,12.9504 6.9077,13.5374 6.6387,14.1244 C6.2247,15.0294 5.8707,15.9544 5.5407,16.8904 C5.3537,17.4214 5.1597,17.9554 5.0357,18.5024 C4.8887,19.1544 4.6947,19.7944 4.5837,20.4564 C4.5027,20.9334 4.4137,21.4114 4.3247,21.8874 C4.2727,22.1644 4.2397,22.4444 4.2127,22.7254 C4.1667,23.1904 4.1017,23.6544 4.0517,24.1194 C4.0387,24.2374 4.0497,24.3574 4.0497,24.5394" id="Fill-7"></path>
                </g>
                <path d="M34.8505,29.725 C35.1385,29.771 35.4245,29.803 35.7145,29.729 C36.2015,29.606 36.6375,29.402 36.9605,29.002 C37.1115,28.814 37.2325,28.806 37.4465,28.913 C37.7755,29.079 38.1155,29.222 38.4505,29.373 C39.1295,29.681 39.7825,30.037 40.4205,30.421 C41.0775,30.816 41.7135,31.245 42.3235,31.71 C42.7895,32.065 43.2425,32.439 43.6805,32.831 C44.0815,33.191 44.4635,33.57 44.8375,33.956 C45.1385,34.265 45.4205,34.59 45.7115,34.909 C45.8215,35.029 45.7865,35.131 45.6795,35.231 C45.4315,35.464 45.2235,35.724 45.0935,36.045 C44.8675,36.603 44.8885,37.155 45.0955,37.71 C45.1325,37.809 45.1865,37.898 45.2485,37.975 C45.3565,38.109 45.3245,38.237 45.2255,38.328 C44.8335,38.694 44.4375,39.058 44.0245,39.4 C43.5175,39.82 42.9985,40.227 42.4565,40.605 C41.8445,41.031 41.2255,41.443 40.5785,41.817 C40.0635,42.115 39.5455,42.409 39.0075,42.659 C38.3455,42.966 37.6825,43.269 36.9925,43.516 C36.4545,43.708 35.9155,43.904 35.3675,44.06 C34.6795,44.256 33.9845,44.439 33.2825,44.573 C32.7715,44.669 32.2545,44.747 31.7345,44.809 C31.1125,44.883 30.4885,44.941 29.8645,45.001 C29.6405,45.023 29.5555,44.817 29.4845,44.647 C29.3535,44.332 29.1605,44.067 28.8825,43.879 C28.7065,43.761 28.6705,43.598 28.7315,43.449 C28.8475,43.168 28.9125,42.875 29.0135,42.593 C29.1795,42.125 29.3195,41.648 29.4785,41.178 C29.6215,40.752 29.7735,40.329 29.9255,39.908 C30.0965,39.434 30.2655,38.959 30.4445,38.49 C30.7105,37.789 30.9765,37.088 31.2875,36.407 C31.4435,36.067 31.5755,35.717 31.7265,35.376 C31.9415,34.891 32.1545,34.404 32.3865,33.927 C32.7265,33.23 33.0705,32.534 33.4355,31.85 C33.8005,31.17 34.1935,30.504 34.5765,29.833 C34.6365,29.728 34.7385,29.71 34.8505,29.725" id="Fill-10" fill="#FBB516"></path>
                <path d="M32.8247,16.9711 C33.1257,17.0011 33.4197,16.9051 33.7207,16.9271 C34.5287,16.9861 35.3367,17.0111 36.1417,17.1251 C37.2887,17.2881 38.4007,17.5631 39.4917,17.9361 C40.1547,18.1631 40.7987,18.4331 41.4217,18.7521 C41.7577,18.9241 42.0887,19.1041 42.4237,19.2791 C42.5117,19.3251 42.6057,19.3751 42.6077,19.4821 C42.6097,19.5861 42.4967,19.5881 42.4287,19.6271 C41.6687,20.0591 40.9457,20.5461 40.2547,21.0791 C39.6997,21.5071 39.1837,21.9791 38.6607,22.4451 C38.1327,22.9171 37.6647,23.4431 37.1797,23.9521 C36.8277,24.3211 36.4997,24.7151 36.1967,25.1281 C36.0447,25.3371 35.8687,25.4161 35.5747,25.3661 C35.0047,25.2691 34.4637,25.4191 33.9957,25.7781 C33.9687,25.8001 33.9387,25.8211 33.9187,25.8491 C33.5367,26.3791 33.0467,26.1501 32.5657,26.0561 C32.0597,25.9581 31.5537,25.8641 31.0397,25.8081 C30.6297,25.7641 30.2187,25.7301 29.8107,25.6531 C29.5677,25.6061 29.3107,25.6181 29.0617,25.6111 C28.6087,25.5991 28.1547,25.5781 27.7037,25.5471 C27.1367,25.5081 26.5697,25.5001 26.0077,25.5311 C25.5997,25.5521 25.1877,25.5161 24.7817,25.5961 C24.6427,25.6241 24.5117,25.5601 24.4157,25.4461 C24.1587,25.1401 23.8477,24.9181 23.4627,24.7971 C23.2627,24.7341 23.2057,24.5371 23.2457,24.2561 C23.2977,23.8941 23.3287,23.5301 23.3727,23.1671 C23.4407,22.6061 23.4657,22.0421 23.5667,21.4831 C23.6397,21.0851 23.6927,20.6811 23.7527,20.2801 C23.7757,20.1251 23.8117,19.9851 23.9667,19.8841 C24.4427,19.5721 24.9267,19.2781 25.4287,19.0081 C25.8567,18.7771 26.2947,18.5681 26.7357,18.3671 C27.1707,18.1701 27.6287,18.0201 28.0787,17.8591 C28.9187,17.5571 29.7867,17.3541 30.6597,17.1961 C31.1797,17.1021 31.7097,17.0221 32.2437,17.0081 C32.4367,17.0021 32.6287,16.9511 32.8247,16.9711" id="Fill-12" fill="#80BC41"></path>
                <path d="M34.2954,51.7904 C34.1564,51.7904 34.0484,51.7744 33.9464,51.7924 C33.6284,51.8504 33.4384,51.6734 33.2454,51.4604 C32.9594,51.1444 32.6474,50.8534 32.3634,50.5344 C31.8154,49.9194 31.2784,49.2954 30.7684,48.6474 C30.3374,48.1024 29.9294,47.5384 29.5194,46.9774 C29.4114,46.8294 29.4174,46.7004 29.4694,46.5534 C29.5294,46.3864 29.6724,46.3254 29.8284,46.3194 C30.1074,46.3114 30.3844,46.3024 30.6634,46.2794 C31.1384,46.2394 31.6084,46.1684 32.0824,46.1134 C32.8284,46.0274 33.5634,45.8864 34.2954,45.7254 C34.6294,45.6514 34.9604,45.5624 35.2914,45.4764 C36.0264,45.2804 36.7534,45.0544 37.4644,44.7844 C38.1364,44.5294 38.8044,44.2614 39.4484,43.9404 C40.0004,43.6664 40.5604,43.4034 41.0904,43.0924 C41.7344,42.7134 42.3724,42.3244 42.9854,41.8944 C43.4984,41.5344 43.9924,41.1504 44.4964,40.7794 C44.8364,40.5294 45.1424,40.2344 45.4594,39.9534 C45.7814,39.6674 46.1034,39.3804 46.4134,39.0804 C46.5554,38.9414 46.7034,39.0194 46.8394,39.0424 C47.2774,39.1204 47.6894,39.0614 48.0774,38.8524 C48.2874,38.7384 48.3634,38.7624 48.4804,38.9784 C48.8024,39.5764 49.0894,40.1894 49.3494,40.8164 C49.4304,41.0124 49.4874,41.2164 49.5864,41.4064 C49.6264,41.4824 49.6124,41.5774 49.5674,41.6674 C49.2054,42.3984 48.8244,43.1204 48.3784,43.8044 C47.8254,44.6504 47.2084,45.4424 46.5224,46.1884 C45.7284,47.0514 44.8614,47.8274 43.9194,48.5164 C43.1874,49.0504 42.4134,49.5214 41.5974,49.9244 C40.7464,50.3434 39.8784,50.7144 38.9734,51.0004 C38.2994,51.2144 37.6164,51.4054 36.9234,51.5214 C36.3134,51.6234 35.7004,51.7374 35.0744,51.7584 C34.8044,51.7674 34.5324,51.7814 34.2954,51.7904" id="Fill-14" fill="#EF5526"></path>
                <path d="M16.2587,35.5502 C16.1977,35.1052 16.2037,34.6572 16.2167,34.2112 C16.2427,33.2992 16.2907,32.3902 16.4537,31.4862 C16.5737,30.8182 16.7237,30.1592 16.8947,29.5062 C17.0137,29.0522 17.1927,28.6142 17.3527,28.1732 C17.4257,27.9722 17.5697,27.8862 17.7957,27.8662 C18.0937,27.8412 18.3857,27.7502 18.6817,27.6962 C19.2207,27.5982 19.7607,27.5052 20.3017,27.4132 C20.4677,27.3842 20.5817,27.4252 20.6537,27.6092 C20.8637,28.1522 21.2087,28.5802 21.7407,28.8532 C21.8767,28.9232 21.8937,29.1002 21.8997,29.2572 C21.9257,29.9832 22.0077,30.7022 22.0927,31.4242 C22.1587,31.9852 22.2617,32.5402 22.3287,33.1012 C22.3897,33.6092 22.5327,34.1062 22.6337,34.6092 C22.8067,35.4802 23.0397,36.3372 23.2937,37.1882 C23.4447,37.6962 23.6117,38.2022 23.7867,38.7042 C24.0627,39.4892 24.3617,40.2642 24.6797,41.0312 C25.0327,41.8852 25.4447,42.7102 25.8557,43.5362 C26.0377,43.9012 26.0307,43.8942 25.7627,44.2062 C25.6527,44.3342 25.5707,44.4902 25.4947,44.6432 C25.4037,44.8232 25.2587,44.8652 25.0797,44.8352 C24.7277,44.7782 24.3727,44.7422 24.0207,44.6802 C23.6567,44.6152 23.2867,44.5882 22.9237,44.5082 C22.4227,44.3982 21.9147,44.3152 21.4127,44.2092 C21.0727,44.1372 20.7377,44.0402 20.3987,43.9642 C19.9987,43.8732 19.6117,43.7392 19.2097,43.6542 C18.9767,43.6042 18.7687,43.4972 18.6277,43.2482 C18.2287,42.5462 17.8627,41.8322 17.5507,41.0852 C17.2047,40.2572 16.9237,39.4112 16.7087,38.5422 C16.5667,37.9702 16.4737,37.3892 16.3757,36.8072 C16.3047,36.3892 16.2987,35.9682 16.2587,35.5502" id="Fill-16" fill="#14A2BA"></path>
                <path d="M50.7866,30.9184 C50.8196,30.9984 50.7856,31.0544 50.7396,31.0924 C50.4856,31.3024 50.3586,31.6034 50.2186,31.8814 C49.8826,32.5444 49.4666,33.1564 49.0646,33.7774 C48.8556,34.1004 48.6316,34.4134 48.4086,34.7264 C48.3026,34.8744 48.1736,34.9464 47.9876,34.8364 C47.8396,34.7494 47.6796,34.6924 47.4986,34.6894 C47.2846,34.6864 47.1526,34.5234 47.0336,34.3744 C46.4736,33.6694 45.8626,33.0114 45.2096,32.3944 C44.3136,31.5454 43.3676,30.7574 42.3476,30.0544 C41.2696,29.3124 40.1436,28.6594 38.9666,28.0934 C38.5546,27.8954 38.1296,27.7224 37.7096,27.5384 C37.6016,27.4914 37.5386,27.4274 37.5146,27.2984 C37.4586,27.0044 37.4036,26.7074 37.2176,26.4564 C37.1036,26.3034 37.1046,26.1484 37.2266,26.0014 C37.9316,25.1464 38.6576,24.3114 39.4666,23.5544 C40.1336,22.9314 40.8236,22.3364 41.5686,21.8034 C42.2746,21.2964 43.0066,20.8424 43.7796,20.4474 C43.9706,20.3504 44.1146,20.3764 44.2696,20.4994 C45.0096,21.0894 45.7246,21.7094 46.3756,22.3974 C46.9466,23.0004 47.4696,23.6444 47.9536,24.3184 C48.4076,24.9494 48.8066,25.6154 49.1676,26.3004 C49.4796,26.8914 49.7476,27.5064 49.9886,28.1324 C50.2056,28.6954 50.3866,29.2684 50.5436,29.8484 C50.6406,30.2054 50.7576,30.5584 50.7866,30.9184" id="Fill-18" fill="#80BC41"></path>
                <path d="M25.4677,26.9486 C25.8577,26.9446 26.2457,26.8836 26.6377,26.9056 C27.2727,26.9416 27.9097,26.9206 28.5427,26.9596 C29.1957,27.0006 29.8477,27.0756 30.4987,27.1506 C31.1677,27.2276 31.8317,27.3286 32.4927,27.4536 C32.5937,27.4726 32.6957,27.4906 32.7987,27.5026 C32.9997,27.5256 33.1117,27.6586 33.1327,27.8596 C33.1657,28.1706 33.2597,28.4626 33.4387,28.7186 C33.5527,28.8826 33.4917,29.0116 33.4047,29.1466 C32.9447,29.8586 32.5567,30.6136 32.1437,31.3516 C31.8137,31.9426 31.5257,32.5576 31.2347,33.1696 C30.9307,33.8086 30.6407,34.4546 30.3547,35.1026 C29.9157,36.0986 29.5137,37.1106 29.1147,38.1236 C28.8107,38.8946 28.5447,39.6816 28.2777,40.4686 C27.9847,41.3316 27.6807,42.1926 27.4517,43.0766 C27.4317,43.1546 27.3907,43.2596 27.3097,43.2666 C27.2297,43.2746 27.1927,43.1786 27.1567,43.1016 C26.8507,42.4276 26.4987,41.7756 26.2037,41.0946 C25.9017,40.3956 25.5927,39.6966 25.3337,38.9816 C25.0377,38.1636 24.7747,37.3326 24.5337,36.4936 C24.3457,35.8386 24.1807,35.1776 24.0237,34.5156 C23.8667,33.8576 23.7267,33.1926 23.6347,32.5236 C23.5487,31.9036 23.4387,31.2856 23.4017,30.6566 C23.3757,30.2276 23.3147,29.7956 23.2467,29.3676 C23.2127,29.1486 23.2807,29.0566 23.4987,28.9666 C24.2397,28.6606 24.7107,28.1146 24.9237,27.3426 C24.9557,27.2256 24.8677,27.0796 24.9977,26.9906 C25.1297,26.9006 25.2827,26.9676 25.4257,26.9486 C25.4397,26.9476 25.4537,26.9486 25.4677,26.9486" id="Fill-20" fill="#FBB516"></path>
                <path d="M20.3706,45.348 C20.6086,45.379 20.8576,45.481 21.1206,45.532 C21.8456,45.674 22.5646,45.84 23.2986,45.945 C23.9176,46.032 24.5356,46.132 25.1586,46.193 C25.3006,46.206 25.4196,46.308 25.4606,46.423 C25.5896,46.784 25.8376,47.046 26.1036,47.299 C26.2156,47.406 26.2456,47.526 26.1906,47.665 C26.0266,48.088 25.9666,48.537 25.8576,48.973 C25.7956,49.218 25.7476,49.466 25.6846,49.711 C25.6496,49.848 25.5596,49.826 25.4576,49.776 C25.1316,49.615 24.8206,49.429 24.5096,49.243 C23.8616,48.853 23.2666,48.389 22.6626,47.938 C22.4636,47.789 22.2716,47.626 22.0996,47.449 C21.7416,47.079 21.3216,46.775 20.9946,46.371 C20.7716,46.096 20.4896,45.87 20.2676,45.591 C20.2226,45.534 20.1596,45.477 20.1936,45.396 C20.2196,45.334 20.2876,45.348 20.3706,45.348" id="Fill-22" fill="#14A2BA"></path>
                <path d="M18.4135,26.3607 C18.3565,26.3447 18.2725,26.3947 18.2455,26.3227 C18.2215,26.2637 18.2355,26.1967 18.2735,26.1267 C18.6905,25.3767 19.1495,24.6547 19.6635,23.9667 C20.0245,23.4857 20.4105,23.0267 20.8115,22.5787 C21.0395,22.3237 21.2725,22.0737 21.5175,21.8367 C21.6625,21.6957 21.8145,21.5637 21.9665,21.4307 C22.0085,21.3937 22.0545,21.3397 22.1225,21.3857 C22.1805,21.4247 22.2055,21.4807 22.1915,21.5487 C22.0705,22.1497 22.0135,22.7597 21.9525,23.3667 C21.9195,23.6897 21.8715,24.0207 21.9035,24.3457 C21.9345,24.6717 21.8085,24.8937 21.5385,25.0477 C21.2535,25.2097 21.0395,25.4417 20.8775,25.7187 C20.7665,25.9087 20.6085,25.9877 20.4005,26.0247 C19.7795,26.1317 19.1455,26.1637 18.5385,26.3527 C18.5005,26.3647 18.4555,26.3587 18.4135,26.3607" id="Fill-24" fill="#14A2BA"></path>
                <path d="M26.9497,50.3051 C26.9837,50.1441 27.0127,49.9811 27.0517,49.8211 C27.1847,49.2541 27.3207,48.6881 27.4567,48.1221 C27.4997,47.9391 27.5547,47.7751 27.7987,47.7811 C27.8507,47.7831 27.9177,47.7571 27.9767,47.7401 C28.3197,47.6331 28.3447,47.6431 28.5477,47.9411 C29.0397,48.6641 29.5727,49.3581 30.1347,50.0301 C30.5177,50.4881 30.8747,50.9661 31.3137,51.3761 C31.3767,51.4351 31.4487,51.5171 31.3937,51.6111 C31.3387,51.7021 31.2517,51.6391 31.1707,51.6321 C30.4277,51.5681 29.7107,51.3701 28.9917,51.1921 C28.4687,51.0611 27.9557,50.8811 27.4547,50.6741 C27.3287,50.6211 27.1977,50.5801 27.0727,50.5241 C26.9837,50.4841 26.9277,50.4131 26.9497,50.3051" id="Fill-26" fill="#EF5526"></path>
                <path d="M51.1186,34.7103 C51.1216,35.0783 51.1446,35.5913 51.0716,36.0953 C50.9806,36.7213 50.8996,37.3473 50.7736,37.9683 C50.6916,38.3713 50.5566,38.7603 50.4856,39.1653 C50.4766,39.2193 50.4606,39.2723 50.4416,39.3233 C50.4166,39.3913 50.3736,39.4473 50.2936,39.4503 C50.2126,39.4543 50.1956,39.3813 50.1716,39.3273 C49.9196,38.7533 49.6436,38.1913 49.3146,37.6583 C49.2686,37.5843 49.2396,37.4983 49.2736,37.4203 C49.4356,37.0433 49.4106,36.6713 49.2696,36.2963 C49.1736,36.0373 49.2566,35.8363 49.4276,35.6173 C49.9616,34.9363 50.4366,34.2123 50.8866,33.4723 C50.9266,33.4053 50.9536,33.3213 51.0526,33.3563 C51.1336,33.3863 51.1186,33.4693 51.1186,33.5393 L51.1186,34.7103 Z" id="Fill-28" fill="#EF5526"></path>
            </g>
        </g>
    </g>
</svg>