<svg xmlns="http://www.w3.org/2000/svg" xmlns:xlink="http://www.w3.org/1999/xlink" width="267" height="77" viewBox="0 0 267 77">
    <defs>
        <path id="a" d="M54.216.131v51.705H.01V.131z"/>
        <path id="c" d="M.083.065h51.394v54H.083z"/>
    </defs>
    <g fill="none" fill-rule="evenodd">
        <text fill="#000" font-family="NexaBold, Nexa Bold" font-size="34" font-weight="bold" transform="translate(89 16)">
            <tspan x=".509" y="33.912">Digital </tspan> <tspan x="107.915" y="33.912" font-family="NexaLight, Nexa Light" font-weight="normal">Lync</tspan>
        </text>
        <path fill="#FCB514" d="M26.666 22.462c-.021.094-.043.19-.067.289l.581-.634c-.173.112-.344.227-.514.345"/>
        <path fill="#DA3235" d="M35.758 58.22s-1.628-1.639-3.608-4.531a2.486 2.486 0 0 1-.774.361c-.463 1.95-.699 3.124-.801 3.098 1.659.7 3.433 1.176 5.284 1.406l-.1-.334z"/>
        <path fill="#577EBF" d="M28.27 52.122c-3.82-.421-5.972-1.465-5.985-1.471a20.106 20.106 0 0 0 6.727 5.757c0-.003.23-.972.636-2.512a2.496 2.496 0 0 1-1.379-1.774"/>
        <path fill="#DA3235" d="M58.297 37.142c-.038.071-.673 1.257-1.926 2.925a2.478 2.478 0 0 1-.006 2.29c.744 1.274 1.09 2.105 1.09 2.105l.045.08c.56-1.843.865-3.798.865-5.824 0-.531-.027-1.056-.068-1.576"/>
        <path fill="#F2C117" d="M38.438 72.276a33.661 33.661 0 0 1-22.255-8.363l2.862-2.859.003.002 3.348-3.344c-5.39-4.555-8.815-11.36-8.815-18.966 0-4.464 1.18-8.652 3.244-12.271l-3.441-3.438A29.384 29.384 0 0 0 8.86 38.746c0 7.3 2.652 13.98 7.044 19.136l-2.88 2.876-.013-.015-3.304 3.3c7.04 7.909 17.302 12.892 28.73 12.892a38.286 38.286 0 0 0 22.046-6.942l-3.356-3.352a33.639 33.639 0 0 1-18.69 5.635"/>
        <g transform="translate(21.723 16.455)">
            <mask id="b" fill="#fff">
                <use xlink:href="#a"/>
            </mask>
            <path fill="#DA3235" d="M47.314.131l-3.356 3.353a33.55 33.55 0 0 1 5.594 18.598c0 8.476-3.131 16.22-8.298 22.146l-2.88-2.876a.044.044 0 0 0 .003-.004l-3.35-3.347c-4.559 5.566-11.488 9.12-19.25 9.12A24.761 24.761 0 0 1 3.45 43.856L.011 47.292a29.459 29.459 0 0 0 15.767 4.544 29.473 29.473 0 0 0 19.407-7.254l2.865 2.862-.006.005 3.304 3.3c7.895-7.033 12.868-17.269 12.868-28.667 0-8.163-2.554-15.73-6.902-21.95" mask="url(#b)"/>
        </g>
        <path fill="#577EBF" d="M53.954 13.59A29.453 29.453 0 0 0 38.438 9.2a29.474 29.474 0 0 0-19.096 6.985L16.253 13.1a.874.874 0 0 1 .005-.004l-3.303-3.3C5.01 16.829 0 27.098 0 38.538a38.19 38.19 0 0 0 6.92 21.98l3.357-3.352a33.554 33.554 0 0 1-5.613-18.628 33.587 33.587 0 0 1 8.319-22.173l1.407 1.406.02-.02 5.011 5.007c4.56-5.407 11.386-8.843 19.017-8.843 4.38 0 8.494 1.133 12.067 3.12l3.449-3.445z"/>
        <g transform="translate(16.537 .075)">
            <mask id="d" fill="#fff">
                <use xlink:href="#c"/>
            </mask>
            <path fill="#42B653" d="M44.224 19.289l3.07-3.068.01.011 3.304-3.3-.01-.011.015-.015-.246-.245c-.836-.92-1.717-1.8-2.638-2.636l-.25-.25-.015.016A38.313 38.313 0 0 0 21.901.065 38.284 38.284 0 0 0 .083 6.848l3.36 3.358a33.636 33.636 0 0 1 18.458-5.482 33.663 33.663 0 0 1 22.26 8.367l-3.088 3.084-.002-.002-3.349 3.346c5.518 4.554 9.035 11.443 9.035 19.151 0 4.33-1.11 8.4-3.06 11.945l3.452 3.45a29.384 29.384 0 0 0 4.328-15.395 29.413 29.413 0 0 0-7.253-19.381" mask="url(#d)"/>
        </g>
        <path fill="#DA3235" d="M55.159 43.487a2.488 2.488 0 0 1-1.824.074c-2.797 2.79-6.804 5.766-12.1 7.294-3.007.866-5.718 1.267-8.094 1.392l-.011.043c1.273 1.782 2.93 3.805 5.218 6.424 8.168 0 15.188-4.89 18.3-11.895l-.033-.097a19.925 19.925 0 0 0-1.456-3.235"/>
        <path fill="#F2C117" d="M52.155 39.71c-2.501-3.023-5.972-5.893-10.363-7.602a2.492 2.492 0 0 1-2.408.927c-.43.687-.862 1.413-1.295 2.191-2.806 5.05-4.636 10.33-5.82 14.466.367.29.648.68.806 1.13 2.91-.08 6.045-.563 9.061-1.78 4.393-1.77 7.544-4.185 9.865-6.572a2.477 2.477 0 0 1 .154-2.76"/>
        <path fill="#42B653" d="M49.858 22.751c-.077.025-3.584 1.194-7.874 6.588.211.366.333.79.333 1.242 0 .044-.004.086-.006.13.95.377 1.91.812 2.883 1.317 3.642 1.89 6.352 4.452 8.268 6.781a2.491 2.491 0 0 1 1.543.054c1.185-1.65 2.015-3.085 2.66-4.015-1.02-4.945-3.869-9.22-7.807-12.097"/>
        <path fill="#577EBF" d="M24.82 27.133c.18-2.376.564-3.707.63-3.76a20.1 20.1 0 0 0-5.082 6.172c.881-.122 1.75-.236 2.611-.344a2.494 2.494 0 0 1 1.841-2.068M26.187 40.725c-.847-3.346-1.245-6.297-1.39-8.775a2.499 2.499 0 0 1-1.635-1.407 30.03 30.03 0 0 0-3.39.727 19.909 19.909 0 0 0-1.441 7.448 19.88 19.88 0 0 0 2.77 10.145c.133.047 3.171 1.104 7.436 1.571.24-.429.602-.779 1.04-1.005-1.316-2.484-2.558-5.415-3.39-8.704"/>
        <path fill="#F2C117" d="M37.326 30.633c-.083-.014-.164-.03-.247-.043a48.252 48.252 0 0 0-9.19-.512 2.497 2.497 0 0 1-1.539 1.792c.102 2.303.433 4.825 1.175 7.36 1.268 4.33 2.064 7.017 3.514 9.733.898-2.98 2.035-6.388 3.295-9.301 1.078-2.491 2.313-4.943 3.765-7.277a2.483 2.483 0 0 1-.773-1.752"/>
        <path fill="#42B653" d="M38.06 18.904a19.923 19.923 0 0 0-10.877 3.211c-.005.018-.522 2.054-.758 5.133.644.273 1.147.809 1.38 1.472 3.315-.213 6.562-.124 9.873.584a2.494 2.494 0 0 1 3.165-.997c2.043-2.497 4.444-4.765 7.313-6.673a19.935 19.935 0 0 0-10.097-2.73"/>
    </g>
</svg>
