<svg width="178" height="144" viewBox="0 0 178 144" xmlns="http://www.w3.org/2000/svg"><title>0BCD9125-AD99-405D-9840-8894BF0ED544</title><g fill="none" fill-rule="evenodd"><path d="M171.17 124c4.394-10.605 6.83-22.238 6.83-34.444C178 40.094 138.156 0 89 0 39.847 0 0 40.094 0 89.556c0 12.206 2.436 23.84 6.834 34.444h164.335z" fill="#DEF9FC"/><path d="M150.942 124A71.436 71.436 0 0 0 159 90.985C159 51.78 127.66 20 89.001 20 50.342 20 19 51.78 19 90.985A71.405 71.405 0 0 0 27.06 124h123.882z" fill="#C1F3F9"/><g stroke="#504B46" stroke-linecap="round"><path d="M18 124h-6M169 124h-6M23 124h134"/></g><g><path d="M122.662 102.98c0-15.506-12.522-28.076-27.97-28.076H77.912c-15.448 0-27.97 12.57-27.97 28.077v21.057h72.721v-21.057z" fill="#3887B7"/><path d="M122.662 102.98c0-15.506-12.522-28.076-27.97-28.076H77.912c-15.448 0-27.97 12.57-27.97 28.077v11.23c0-15.506 12.522-28.076 27.97-28.076h16.782c15.447 0 27.97 12.57 27.97 28.077V102.98z" fill="#619FC6"/><path d="M96.804 75.01c-.7-.053-1.399-.106-2.112-.106H77.91c-.713 0-1.412.053-2.111.107l-.686 5.509 11.188 43.519 11.188-43.52-.685-5.508z" fill="#FFF"/><path d="M96.804 75.01c-.7-.053-1.399-.106-2.112-.106H77.91c-.713 0-1.412.053-2.111.107l-.686 5.509 11.188 43.519 11.188-43.52-.685-5.508z" stroke="#504B46" stroke-linecap="round" stroke-linejoin="round"/><path d="M122.662 102.98c0-15.506-12.522-28.076-27.97-28.076H77.912c-15.448 0-27.97 12.57-27.97 28.077v21.057h72.721v-21.057z" stroke="#504B46" stroke-linecap="round" stroke-linejoin="round"/><path fill="#3887B7" d="M95.091 69.288L96.49 80.52l-11.188 43.52h5.594l13.985-21.058-6.993-7.02 11.188-8.423z"/><path stroke="#504B46" stroke-linecap="round" stroke-linejoin="round" d="M95.091 69.288L96.49 80.52l-11.188 43.52h5.594l13.985-21.058-6.993-7.02 11.188-8.423z"/><path fill="#FDDFD1" d="M94.693 74.904l-8.391 5.615-8.391-5.615V62.269h16.782z"/><path d="M77.91 71.795c.213.096.412.202.636.29 4.696 1.886 10.816 1.886 15.512 0 .224-.088.422-.194.635-.29V62.27H77.91v9.526z" fill="#FCCAB4"/><path d="M108.677 124.038v-9.826" fill="#EDF2F4"/><path d="M108.677 124.038v-9.826" stroke="#504B46" stroke-linecap="round" stroke-linejoin="round"/><path d="M108.677 110v-1.404" fill="#EDF2F4"/><path d="M108.677 110v-1.404M94.693 74.904l-8.391 5.615-8.391-5.615V62.269h16.782z" stroke="#504B46" stroke-linecap="round" stroke-linejoin="round"/><path fill="#E05B4A" d="M86.302 80.52l-5.594 22.46 5.594 21.058 5.594-21.057z"/><path stroke="#504B46" stroke-linecap="round" stroke-linejoin="round" d="M86.302 80.52l-5.594 22.46 5.594 21.058 5.594-21.057z"/><path d="M86.302 80.52l8.39 7.018" fill="#E05B4A"/><path d="M86.302 80.52l8.39 7.018" stroke="#504B46" stroke-linecap="round" stroke-linejoin="round"/><path d="M63.926 124.038v-9.826" fill="#EDF2F4"/><path d="M63.926 124.038v-9.826" stroke="#504B46" stroke-linecap="round" stroke-linejoin="round"/><path d="M63.926 110v-1.404" fill="#EDF2F4"/><path d="M63.926 110v-1.404" stroke="#504B46" stroke-linecap="round" stroke-linejoin="round"/><path fill="#3887B7" d="M77.469 69.288L76.175 80.52l10.353 43.52H81.35L68.41 102.98l6.47-7.02-10.352-8.423z"/><path stroke="#504B46" stroke-linecap="round" stroke-linejoin="round" d="M77.469 69.288L76.175 80.52l10.353 43.52H81.35L68.41 102.98l6.47-7.02-10.352-8.423z"/><path d="M86.302 80.52l-8.391 7.018" fill="#E05B4A"/><path d="M73.627 138.474c0 1.619-12.229 2.933-27.314 2.933-15.084 0-27.313-1.314-27.313-2.933 0-1.62 12.229-2.933 27.313-2.933 15.085 0 27.314 1.314 27.314 2.933" fill="#E4EDF1"/><path d="M69.725 133.585c0 2.161-1.746 3.911-3.902 3.911h-39.02a3.905 3.905 0 0 1-3.901-3.91V106.21c0-2.16 1.746-3.91 3.902-3.91h39.019a3.905 3.905 0 0 1 3.902 3.91v27.375z" fill="#CAD7DE"/><path d="M46.86 102.3H26.804a3.907 3.907 0 0 0-3.902 3.91v20.103l23.96-24.014z" fill="#E3ECF1"/><path d="M69.725 133.585c0 2.161-1.746 3.911-3.902 3.911h-39.02a3.905 3.905 0 0 1-3.901-3.91V106.21c0-2.16 1.746-3.91 3.902-3.91h39.019a3.905 3.905 0 0 1 3.902 3.91v27.375z" stroke="#504B46" stroke-linecap="round" stroke-linejoin="round"/><path d="M39.656 102.3l2.091-4.89h9.133l2.091 4.89h4.07a1.89 1.89 0 0 0-.156-.771l-2.927-6.844a1.946 1.946 0 0 0-1.793-1.185H40.46a1.95 1.95 0 0 0-1.793 1.185l-2.927 6.844a1.957 1.957 0 0 0-.156.77h4.072z" fill="#CAD7DE"/><path d="M39.656 102.3l2.091-4.89h9.133l2.091 4.89h4.07a1.89 1.89 0 0 0-.156-.771l-2.927-6.844a1.946 1.946 0 0 0-1.793-1.185H40.46a1.95 1.95 0 0 0-1.793 1.185l-2.927 6.844a1.957 1.957 0 0 0-.156.77h4.072zM37.534 97.41h17.559M86.302 80.52l-8.391 7.018" stroke="#504B46" stroke-linecap="round" stroke-linejoin="round"/><path d="M108.677 45.423c0 12.404-10.018 22.462-22.375 22.462S63.926 57.827 63.926 45.423v-11.23c0-12.405 10.019-22.462 22.376-22.462 12.357 0 22.375 10.057 22.375 22.461v11.231z" fill="#FDDFD1"/><path d="M108.677 45.423c0 12.404-10.018 22.462-22.375 22.462S63.926 57.827 63.926 45.423v-11.23c0-12.405 10.019-22.462 22.376-22.462 12.357 0 22.375 10.057 22.375 22.461v11.231z" stroke="#504B46" stroke-linecap="round" stroke-linejoin="round"/><path d="M82.106 42.615c-.864-1.648-2.38-2.807-4.195-2.807-1.815 0-3.331 1.16-4.196 2.807M98.888 42.615c-.864-1.648-2.38-2.807-4.195-2.807-1.816 0-3.332 1.16-4.196 2.807M77.701 55.25c1.726 1.648 4.763 2.808 8.391 2.808s6.665-1.16 8.39-2.808" stroke="#504B46" stroke-linecap="round" stroke-linejoin="round"/><path d="M75.114 51.038a2.803 2.803 0 0 1-2.797 2.808 2.803 2.803 0 0 1-2.797-2.808 2.803 2.803 0 0 1 2.797-2.807 2.803 2.803 0 0 1 2.797 2.807M103.084 51.038a2.803 2.803 0 0 1-2.797 2.808 2.803 2.803 0 0 1-2.797-2.808 2.803 2.803 0 0 1 2.797-2.807 2.803 2.803 0 0 1 2.797 2.807" fill="#FCCAB4"/><path d="M98.189 13.486c-16.3-18.39-62.582 5.264-33.04 39.22-2.798-8.423 1.574-17.11 1.574-17.11 8.391 0 22.983-7.668 28.99-15.364-.002.18-.033.335-.033.517 0 13.443 12.997 13.443 12.997 27.482 14.335-27.024-6.695-37.401-10.488-34.745" fill="#9A6A4E"/><path d="M98.189 13.486c-16.3-18.39-62.582 5.264-33.04 39.22-2.798-8.423 1.574-17.11 1.574-17.11 8.391 0 22.983-7.668 28.99-15.364-.002.18-.033.335-.033.517 0 13.443 12.997 13.443 12.997 27.482 14.335-27.024-6.695-37.401-10.488-34.745z" stroke="#504B46" stroke-linejoin="round"/><path d="M97.84 13.222c-16.301-18.39-62.583 5.265-33.041 39.22a17.763 17.763 0 0 1-.666-2.787C49.908 23.552 80.188 6.105 97.481 14.59c2.092 1.024.358-1.368.358-1.368" fill="#AE8871"/><path d="M98.189 13.486c-16.3-18.39-62.582 5.264-33.04 39.22-2.798-8.423 1.574-17.11 1.574-17.11 8.391 0 22.983-7.668 28.99-15.364-.002.18-.033.335-.033.517 0 13.443 12.997 13.443 12.997 27.482 14.335-27.024-6.695-37.401-10.488-34.745z" stroke="#504B46" stroke-linejoin="round"/><path d="M26.167 90.346v50.539" fill="#FED75C"/><path d="M84.375 130.963l.081-.082c0 .028-.028.053-.053.082h-.028z" fill="#D1ECF4"/><path d="M84.375 130.963h.028c-.028.028-.056.053-.08.08 0-.027.024-.052.052-.08M83.413 132.143c.322-.349.616-.725.91-1.101-.294.376-.588.724-.91 1.1M76.708 143.164c.268 0 .506.029.775.029h-.535c-.08 0-.159 0-.24-.029" fill="#F9E280"/><path fill="#D1ECF4" d="M53.892 142.145l.293.725h-.293z"/><path fill="#82C67C" d="M53.892 142.145l-.24-.617h.24z"/></g></g></svg>