<?xml version="1.0" encoding="UTF-8"?>
<svg width="179px" height="143px" viewBox="0 0 179 143" version="1.1" xmlns="http://www.w3.org/2000/svg" xmlns:xlink="http://www.w3.org/1999/xlink">
    <!-- Generator: sketchtool 42 (36781) - http://www.bohemiancoding.com/sketch -->
    <title>0BCD9125-AD99-405D-9840-8894BF0ED544</title>
    <desc>Created with sketchtool.</desc>
    <defs></defs>
    <g id="Page-1" stroke="none" stroke-width="1" fill="none" fill-rule="evenodd">
        <g id="login-choose" transform="translate(-887.000000, -373.000000)">
            <g id="Businessman" transform="translate(886.000000, 373.000000)">
                <path d="M173.129544,123.538462 C177.548743,112.973115 179.998881,101.382962 179.998881,89.2228462 C179.998881,39.9450385 139.929613,0 90.4961188,0 C41.0654213,0 0.993356354,39.9450385 0.993356354,89.2228462 C0.993356354,101.382962 3.44349448,112.973115 7.86549033,123.538462 L173.129544,123.538462 Z" id="Fill-1" fill="#DEF9FC"></path>
                <path d="M155.988087,124.942308 C161.405801,114.685808 164.507631,103.022654 164.507631,90.6266923 C164.507631,49.8786538 131.37203,16.8461538 90.4972376,16.8461538 C49.6224448,16.8461538 16.484047,49.8786538 16.484047,90.6266923 C16.484047,103.022654 19.5858771,114.685808 25.0063881,124.942308 L155.988087,124.942308 Z" id="Fill-4" fill="#C1F3F9"></path>
                <path d="M17.7762431,123.538462 L12.1823204,123.538462" id="Stroke-6" stroke="#504B46" stroke-linecap="round"></path>
                <path d="M168.812155,123.538462 L163.218232,123.538462" id="Stroke-8" stroke="#504B46" stroke-linecap="round"></path>
                <path d="M23.3701657,123.538462 L157.624309,123.538462" id="Stroke-10" stroke="#504B46" stroke-linecap="round"></path>
                <path d="M122.662293,102.480769 C122.662293,86.9738846 110.140297,74.4038462 94.6926796,74.4038462 L77.9109116,74.4038462 C62.4632942,74.4038462 49.9412983,86.9738846 49.9412983,102.480769 L49.9412983,123.538462 L122.662293,123.538462 L122.662293,102.480769 L122.662293,102.480769 Z" id="Fill-13" fill="#3887B7"></path>
                <path d="M122.662293,102.480769 C122.662293,86.9738846 110.140297,74.4038462 94.6926796,74.4038462 L77.9109116,74.4038462 C62.4632942,74.4038462 49.9412983,86.9738846 49.9412983,102.480769 L49.9412983,113.711538 C49.9412983,98.2046538 62.4632942,85.6346154 77.9109116,85.6346154 L94.6926796,85.6346154 C110.140297,85.6346154 122.662293,98.2046538 122.662293,113.711538 L122.662293,102.480769 Z" id="Fill-15" fill="#619FC6"></path>
                <path d="M96.803826,74.5108192 C96.1045856,74.4574731 95.4053453,74.4041269 94.6921202,74.4041269 L77.9103522,74.4041269 C77.1971271,74.4041269 76.4978867,74.4574731 75.7986464,74.5108192 L75.1133909,80.0195115 L86.3012362,123.538742 L97.4890815,80.0195115 L96.803826,74.5108192 Z" id="Fill-17" fill="#FFFFFF"></path>
                <path d="M96.803826,74.5108192 C96.1045856,74.4574731 95.4053453,74.4041269 94.6921202,74.4041269 L77.9103522,74.4041269 C77.1971271,74.4041269 76.4978867,74.4574731 75.7986464,74.5108192 L75.1133909,80.0195115 L86.3012362,123.538742 L97.4890815,80.0195115 L96.803826,74.5108192 L96.803826,74.5108192 Z" id="Stroke-19" stroke="#504B46" stroke-linecap="round" stroke-linejoin="round"></path>
                <path d="M122.662293,102.480769 C122.662293,86.9738846 110.140297,74.4038462 94.6926796,74.4038462 L77.9109116,74.4038462 C62.4632942,74.4038462 49.9412983,86.9738846 49.9412983,102.480769 L49.9412983,123.538462 L122.662293,123.538462 L122.662293,102.480769 L122.662293,102.480769 Z" id="Stroke-21" stroke="#504B46" stroke-linecap="round" stroke-linejoin="round"></path>
                <polygon id="Fill-23" fill="#3887B7" points="96.0911602 68.7884615 97.4896409 80.0192308 86.3017956 123.538462 91.8957182 123.538462 105.880525 102.480769 98.8881215 95.4615385 110.075967 87.0384615"></polygon>
                <polygon id="Stroke-25" stroke="#504B46" stroke-linecap="round" stroke-linejoin="round" points="96.0911602 68.7884615 97.4896409 80.0192308 86.3017956 123.538462 91.8957182 123.538462 105.880525 102.480769 98.8881215 95.4615385 110.075967 87.0384615"></polygon>
                <polygon id="Fill-27" fill="#FDDFD1" points="94.6926796 74.4038462 86.3017956 80.0192308 77.9109116 74.4038462 77.9109116 61.7692308 94.6926796 61.7692308"></polygon>
                <path d="M77.9109116,71.2951692 C78.1234807,71.3906308 78.3220649,71.4973231 78.5458218,71.5843615 C83.2419199,73.4711308 89.3616713,73.4711308 94.0577693,71.5843615 C94.2815262,71.4973231 94.4801105,71.3906308 94.6926796,71.2951692 L94.6926796,61.7686692 L77.9109116,61.7686692 L77.9109116,71.2951692 Z" id="Fill-29" fill="#FCCAB4"></path>
                <path d="M108.677486,123.538462 L108.677486,113.711538" id="Fill-31" fill="#EDF2F4"></path>
                <path d="M108.677486,123.538462 L108.677486,113.711538" id="Stroke-33" stroke="#504B46" stroke-linecap="round" stroke-linejoin="round"></path>
                <path d="M108.677486,109.5 L108.677486,108.096154" id="Fill-35" fill="#EDF2F4"></path>
                <path d="M108.677486,109.5 L108.677486,108.096154" id="Stroke-37" stroke="#504B46" stroke-linecap="round" stroke-linejoin="round"></path>
                <polygon id="Stroke-39" stroke="#504B46" stroke-linecap="round" stroke-linejoin="round" points="94.6926796 74.4038462 86.3017956 80.0192308 77.9109116 74.4038462 77.9109116 61.7692308 94.6926796 61.7692308"></polygon>
                <polygon id="Fill-41" fill="#E05B4A" points="86.3017956 80.0192308 80.7078729 102.480769 86.3017956 123.538462 91.8957182 102.480769"></polygon>
                <polygon id="Stroke-43" stroke="#504B46" stroke-linecap="round" stroke-linejoin="round" points="86.3017956 80.0192308 80.7078729 102.480769 86.3017956 123.538462 91.8957182 102.480769"></polygon>
                <path d="M86.3017956,80.0192308 L94.6926796,87.0384615" id="Fill-45" fill="#E05B4A"></path>
                <path d="M86.3017956,80.0192308 L94.6926796,87.0384615" id="Stroke-47" stroke="#504B46" stroke-linecap="round" stroke-linejoin="round"></path>
                <path d="M63.926105,123.538462 L63.926105,113.711538" id="Fill-49" fill="#EDF2F4"></path>
                <path d="M63.926105,123.538462 L63.926105,113.711538" id="Stroke-51" stroke="#504B46" stroke-linecap="round" stroke-linejoin="round"></path>
                <path d="M63.926105,109.5 L63.926105,108.096154" id="Fill-53" fill="#EDF2F4"></path>
                <path d="M63.926105,109.5 L63.926105,108.096154" id="Stroke-55" stroke="#504B46" stroke-linecap="round" stroke-linejoin="round"></path>
                <polygon id="Fill-57" fill="#3887B7" points="76.5124309 68.7884615 75.1139503 80.0192308 86.3017956 123.538462 80.7078729 123.538462 66.7230663 102.480769 73.7154696 95.4615385 62.5276243 87.0384615"></polygon>
                <polygon id="Stroke-59" stroke="#504B46" stroke-linecap="round" stroke-linejoin="round" points="76.5124309 68.7884615 75.1139503 80.0192308 86.3017956 123.538462 80.7078729 123.538462 66.7230663 102.480769 73.7154696 95.4615385 62.5276243 87.0384615"></polygon>
                <path d="M86.3017956,80.0192308 L77.9109116,87.0384615" id="Fill-61" fill="#E05B4A"></path>
                <path d="M86.3017956,80.0192308 L77.9109116,87.0384615" id="Stroke-63" stroke="#504B46" stroke-linecap="round" stroke-linejoin="round"></path>
                <path d="M108.677486,44.9230769 C108.677486,57.3274615 98.6587707,67.3846154 86.3017956,67.3846154 C73.9448204,67.3846154 63.926105,57.3274615 63.926105,44.9230769 L63.926105,33.6923077 C63.926105,21.2879231 73.9448204,11.2307692 86.3017956,11.2307692 C98.6587707,11.2307692 108.677486,21.2879231 108.677486,33.6923077 L108.677486,44.9230769 Z" id="Fill-65" fill="#FDDFD1"></path>
                <path d="M108.677486,44.9230769 C108.677486,57.3274615 98.6587707,67.3846154 86.3017956,67.3846154 C73.9448204,67.3846154 63.926105,57.3274615 63.926105,44.9230769 L63.926105,33.6923077 C63.926105,21.2879231 73.9448204,11.2307692 86.3017956,11.2307692 C98.6587707,11.2307692 108.677486,21.2879231 108.677486,33.6923077 L108.677486,44.9230769 L108.677486,44.9230769 Z" id="Stroke-67" stroke="#504B46" stroke-linecap="round" stroke-linejoin="round"></path>
                <path d="M82.1063536,42.1153846 C81.2420925,40.4672692 79.7261395,39.3076923 77.9109116,39.3076923 C76.0956837,39.3076923 74.5797307,40.4672692 73.7154696,42.1153846" id="Stroke-69" stroke="#504B46" stroke-linecap="round" stroke-linejoin="round"></path>
                <path d="M98.8881215,42.1153846 C98.0238605,40.4672692 96.5079075,39.3076923 94.6926796,39.3076923 C92.8774517,39.3076923 91.3614986,40.4672692 90.4972376,42.1153846" id="Stroke-71" stroke="#504B46" stroke-linecap="round" stroke-linejoin="round"></path>
                <path d="M77.7011395,54.75 C79.4268646,56.3981154 82.4643646,57.5576923 86.0920235,57.5576923 C89.7196823,57.5576923 92.7571823,56.3981154 94.4829075,54.75" id="Stroke-73" stroke="#504B46" stroke-linecap="round" stroke-linejoin="round"></path>
                <path d="M75.1139503,50.5384615 C75.1139503,52.0883077 73.8609116,53.3461538 72.316989,53.3461538 C70.7730663,53.3461538 69.5200276,52.0883077 69.5200276,50.5384615 C69.5200276,48.9886154 70.7730663,47.7307692 72.316989,47.7307692 C73.8609116,47.7307692 75.1139503,48.9886154 75.1139503,50.5384615" id="Fill-75" fill="#FCCAB4"></path>
                <path d="M103.083564,50.5384615 C103.083564,52.0883077 101.830525,53.3461538 100.286602,53.3461538 C98.7426796,53.3461538 97.4896409,52.0883077 97.4896409,50.5384615 C97.4896409,48.9886154 98.7426796,47.7307692 100.286602,47.7307692 C101.830525,47.7307692 103.083564,48.9886154 103.083564,50.5384615" id="Fill-77" fill="#FCCAB4"></path>
                <path d="M98.1888812,12.9855769 C81.8881906,-5.40480769 35.6068715,18.25 65.1483771,52.2062308 C62.3514157,43.7831538 66.7230663,35.0961538 66.7230663,35.0961538 C75.1139503,35.0961538 89.7056975,27.4283462 95.7135704,19.7324615 C95.7107735,19.9121538 95.6800069,20.0665769 95.6800069,20.2490769 C95.6800069,33.6923077 108.677486,33.6923077 108.677486,47.7307692 C123.011913,20.7067308 101.981561,10.3295 98.1888812,12.9855769" id="Fill-79" fill="#9A6A4E"></path>
                <path d="M98.1888812,12.9855769 C81.8881906,-5.40480769 35.6068715,18.25 65.1483771,52.2062308 C62.3514157,43.7831538 66.7230663,35.0961538 66.7230663,35.0961538 C75.1139503,35.0961538 89.7056975,27.4283462 95.7135704,19.7324615 C95.7107735,19.9121538 95.6800069,20.0665769 95.6800069,20.2490769 C95.6800069,33.6923077 108.677486,33.6923077 108.677486,47.7307692 C123.011913,20.7067308 101.981561,10.3295 98.1888812,12.9855769 L98.1888812,12.9855769 Z" id="Stroke-81" stroke="#504B46" stroke-linejoin="round"></path>
                <path d="M97.839261,12.7222154 C81.5385704,-5.66816923 35.2572514,17.9866385 64.7987569,51.9428692 C64.4910912,51.0135231 64.2813191,50.0813692 64.1330801,49.1548308 C49.9077348,23.0517154 80.1876381,5.60471538 97.48125,14.0895615 C99.5733771,15.1143692 97.839261,12.7222154 97.839261,12.7222154" id="Fill-83" fill="#AE8871"></path>
                <path d="M98.1888812,12.9855769 C81.8881906,-5.40480769 35.6068715,18.25 65.1483771,52.2062308 C62.3514157,43.7831538 66.7230663,35.0961538 66.7230663,35.0961538 C75.1139503,35.0961538 89.7056975,27.4283462 95.7135704,19.7324615 C95.7107735,19.9121538 95.6800069,20.0665769 95.6800069,20.2490769 C95.6800069,33.6923077 108.677486,33.6923077 108.677486,47.7307692 C123.011913,20.7067308 101.981561,10.3295 98.1888812,12.9855769 L98.1888812,12.9855769 Z" id="Stroke-85" stroke="#504B46" stroke-linejoin="round"></path>
                <path d="M26.1671271,89.8461538 L26.1671271,140.384615" id="Fill-102" fill="#FED75C"></path>
                <path d="M84.3752486,130.462512 C84.4032182,130.434435 84.4283909,130.409165 84.4563605,130.381088 C84.4563605,130.409165 84.4283909,130.434435 84.4032182,130.462512 L84.3752486,130.462512 Z" id="Fill-109" fill="#D1ECF4"></path>
                <path d="M84.3752486,130.462512 L84.4032182,130.462512 C84.3752486,130.490588 84.347279,130.515858 84.3221064,130.543935 C84.3221064,130.515858 84.347279,130.490588 84.3752486,130.462512" id="Fill-110" fill="#F9E280"></path>
                <path d="M83.4133736,131.642585 C83.7350242,131.294431 84.0287051,130.9182 84.322386,130.541969 C84.0287051,130.9182 83.7350242,131.266354 83.4133736,131.642585" id="Fill-111" fill="#F9E280"></path>
                <path d="M76.7079385,142.664462 C76.9764468,142.664462 77.2141885,142.692538 77.4826968,142.692538 L76.9484772,142.692538 C76.8673653,142.692538 76.7890504,142.692538 76.7079385,142.664462" id="Fill-113" fill="#F9E280"></path>
                <polygon id="Fill-122" fill="#D1ECF4" points="53.8917265 141.645269 54.1854075 142.369654 53.8917265 142.369654"></polygon>
                <polygon id="Fill-124" fill="#82C67C" points="53.8917265 141.645269 53.6511878 141.027577 53.8917265 141.027577"></polygon>
            </g>
        </g>
    </g>
</svg>