<?xml version="1.0" encoding="UTF-8"?>
<svg width="180px" height="143px" viewBox="0 0 180 143" version="1.1" xmlns="http://www.w3.org/2000/svg" xmlns:xlink="http://www.w3.org/1999/xlink">
    <!-- Generator: sketchtool 42 (36781) - http://www.bohemiancoding.com/sketch -->
    <title>52F4DE58-BBB9-4D44-8CCB-6D1BB775C0D9</title>
    <desc>Created with sketchtool.</desc>
    <defs></defs>
    <g id="Page-1" stroke="none" stroke-width="1" fill="none" fill-rule="evenodd">
        <g id="login-choose" transform="translate(-374.000000, -373.000000)">
            <g id="Businessman" transform="translate(374.000000, 373.000000)">
                <path d="M173.091375,123.538462 C177.535125,112.973115 179.998875,101.382962 179.998875,89.2228462 C179.998875,39.9450385 139.707,0 89.998875,0 C40.2935625,0 -0.001125,39.9450385 -0.001125,89.2228462 C-0.001125,101.382962 2.462625,112.973115 6.9091875,123.538462 L173.091375,123.538462 Z" id="Fill-1" fill="#DEF9FC"></path>
                <path d="M155.854688,124.942308 C161.3025,114.685808 164.421563,103.022654 164.421563,90.6266923 C164.421563,49.8786538 131.101875,16.8461538 90,16.8461538 C48.898125,16.8461538 15.575625,49.8786538 15.575625,90.6266923 C15.575625,103.022654 18.6946875,114.685808 24.1453125,124.942308 L155.854688,124.942308 Z" id="Fill-4" fill="#C1F3F9"></path>
                <path d="M16.875,123.538462 L11.25,123.538462" id="Stroke-6" stroke="#504B46" stroke-linecap="round"></path>
                <path d="M168.75,123.538462 L163.125,123.538462" id="Stroke-8" stroke="#504B46" stroke-linecap="round"></path>
                <path d="M22.5,123.538462 L157.5,123.538462" id="Stroke-10" stroke="#504B46" stroke-linecap="round"></path>
                <path d="M122.34375,102.480769 C122.34375,86.9738846 109.752187,74.4038462 94.21875,74.4038462 L77.34375,74.4038462 C61.8103125,74.4038462 49.21875,86.9738846 49.21875,102.480769 L49.21875,123.538462 L122.34375,123.538462 L122.34375,102.480769 L122.34375,102.480769 Z" id="Fill-13" fill="#3887B7"></path>
                <path d="M122.34375,102.480769 C122.34375,86.9738846 109.752187,74.4038462 94.21875,74.4038462 L77.34375,74.4038462 C61.8103125,74.4038462 49.21875,86.9738846 49.21875,102.480769 L49.21875,113.711538 C49.21875,98.2046538 61.8103125,85.6346154 77.34375,85.6346154 L94.21875,85.6346154 C109.752187,85.6346154 122.34375,98.2046538 122.34375,113.711538 L122.34375,102.480769 Z" id="Fill-15" fill="#619FC6"></path>
                <path d="M96.341625,74.5108192 C95.6385,74.4574731 94.935375,74.4041269 94.2181875,74.4041269 L77.3431875,74.4041269 C76.626,74.4041269 75.922875,74.4574731 75.21975,74.5108192 L74.5306875,80.0195115 L85.7806875,123.538742 L97.0306875,80.0195115 L96.341625,74.5108192 Z" id="Fill-17" fill="#FFFFFF"></path>
                <path d="M96.341625,74.5108192 C95.6385,74.4574731 94.935375,74.4041269 94.2181875,74.4041269 L77.3431875,74.4041269 C76.626,74.4041269 75.922875,74.4574731 75.21975,74.5108192 L74.5306875,80.0195115 L85.7806875,123.538742 L97.0306875,80.0195115 L96.341625,74.5108192 L96.341625,74.5108192 Z" id="Stroke-19" stroke="#504B46" stroke-linecap="round" stroke-linejoin="round"></path>
                <path d="M122.34375,102.480769 C122.34375,86.9738846 109.752187,74.4038462 94.21875,74.4038462 L77.34375,74.4038462 C61.8103125,74.4038462 49.21875,86.9738846 49.21875,102.480769 L49.21875,123.538462 L122.34375,123.538462 L122.34375,102.480769 L122.34375,102.480769 Z" id="Stroke-21" stroke="#504B46" stroke-linecap="round" stroke-linejoin="round"></path>
                <polygon id="Fill-23" fill="#3887B7" points="95.625 68.7884615 97.03125 80.0192308 85.78125 123.538462 91.40625 123.538462 105.46875 102.480769 98.4375 95.4615385 109.6875 87.0384615"></polygon>
                <polygon id="Stroke-25" stroke="#504B46" stroke-linecap="round" stroke-linejoin="round" points="95.625 68.7884615 97.03125 80.0192308 85.78125 123.538462 91.40625 123.538462 105.46875 102.480769 98.4375 95.4615385 109.6875 87.0384615"></polygon>
                <polygon id="Fill-27" fill="#FDDFD1" points="94.21875 74.4038462 85.78125 80.0192308 77.34375 74.4038462 77.34375 61.7692308 94.21875 61.7692308"></polygon>
                <path d="M77.34375,71.2951692 C77.5575,71.3906308 77.7571875,71.4973231 77.9821875,71.5843615 C82.704375,73.4711308 88.858125,73.4711308 93.5803125,71.5843615 C93.8053125,71.4973231 94.005,71.3906308 94.21875,71.2951692 L94.21875,61.7686692 L77.34375,61.7686692 L77.34375,71.2951692 Z" id="Fill-29" fill="#FCCAB4"></path>
                <path d="M108.28125,123.538462 L108.28125,113.711538" id="Fill-31" fill="#EDF2F4"></path>
                <path d="M108.28125,123.538462 L108.28125,113.711538" id="Stroke-33" stroke="#504B46" stroke-linecap="round" stroke-linejoin="round"></path>
                <path d="M108.28125,109.5 L108.28125,108.096154" id="Fill-35" fill="#EDF2F4"></path>
                <path d="M108.28125,109.5 L108.28125,108.096154" id="Stroke-37" stroke="#504B46" stroke-linecap="round" stroke-linejoin="round"></path>
                <polygon id="Stroke-39" stroke="#504B46" stroke-linecap="round" stroke-linejoin="round" points="94.21875 74.4038462 85.78125 80.0192308 77.34375 74.4038462 77.34375 61.7692308 94.21875 61.7692308"></polygon>
                <polygon id="Fill-41" fill="#E05B4A" points="85.78125 80.0192308 80.15625 102.480769 85.78125 123.538462 91.40625 102.480769"></polygon>
                <polygon id="Stroke-43" stroke="#504B46" stroke-linecap="round" stroke-linejoin="round" points="85.78125 80.0192308 80.15625 102.480769 85.78125 123.538462 91.40625 102.480769"></polygon>
                <path d="M85.78125,80.0192308 L94.21875,87.0384615" id="Fill-45" fill="#E05B4A"></path>
                <path d="M85.78125,80.0192308 L94.21875,87.0384615" id="Stroke-47" stroke="#504B46" stroke-linecap="round" stroke-linejoin="round"></path>
                <path d="M63.28125,123.538462 L63.28125,113.711538" id="Fill-49" fill="#EDF2F4"></path>
                <path d="M63.28125,123.538462 L63.28125,113.711538" id="Stroke-51" stroke="#504B46" stroke-linecap="round" stroke-linejoin="round"></path>
                <path d="M63.28125,109.5 L63.28125,108.096154" id="Fill-53" fill="#EDF2F4"></path>
                <path d="M63.28125,109.5 L63.28125,108.096154" id="Stroke-55" stroke="#504B46" stroke-linecap="round" stroke-linejoin="round"></path>
                <polygon id="Fill-57" fill="#3887B7" points="75.9375 68.7884615 74.53125 80.0192308 85.78125 123.538462 80.15625 123.538462 66.09375 102.480769 73.125 95.4615385 61.875 87.0384615"></polygon>
                <polygon id="Stroke-59" stroke="#504B46" stroke-linecap="round" stroke-linejoin="round" points="75.9375 68.7884615 74.53125 80.0192308 85.78125 123.538462 80.15625 123.538462 66.09375 102.480769 73.125 95.4615385 61.875 87.0384615"></polygon>
                <path d="M85.78125,80.0192308 L77.34375,87.0384615" id="Fill-61" fill="#E05B4A"></path>
                <path d="M85.78125,80.0192308 L77.34375,87.0384615" id="Stroke-63" stroke="#504B46" stroke-linecap="round" stroke-linejoin="round"></path>
                <path d="M108.28125,44.9230769 C108.28125,57.3274615 98.206875,67.3846154 85.78125,67.3846154 C73.355625,67.3846154 63.28125,57.3274615 63.28125,44.9230769 L63.28125,33.6923077 C63.28125,21.2879231 73.355625,11.2307692 85.78125,11.2307692 C98.206875,11.2307692 108.28125,21.2879231 108.28125,33.6923077 L108.28125,44.9230769 Z" id="Fill-65" fill="#FDDFD1"></path>
                <path d="M108.28125,44.9230769 C108.28125,57.3274615 98.206875,67.3846154 85.78125,67.3846154 C73.355625,67.3846154 63.28125,57.3274615 63.28125,44.9230769 L63.28125,33.6923077 C63.28125,21.2879231 73.355625,11.2307692 85.78125,11.2307692 C98.206875,11.2307692 108.28125,21.2879231 108.28125,33.6923077 L108.28125,44.9230769 L108.28125,44.9230769 Z" id="Stroke-67" stroke="#504B46" stroke-linecap="round" stroke-linejoin="round"></path>
                <path d="M81.5625,42.1153846 C80.6934375,40.4672692 79.1690625,39.3076923 77.34375,39.3076923 C75.5184375,39.3076923 73.9940625,40.4672692 73.125,42.1153846" id="Stroke-69" stroke="#504B46" stroke-linecap="round" stroke-linejoin="round"></path>
                <path d="M98.4375,42.1153846 C97.5684375,40.4672692 96.0440625,39.3076923 94.21875,39.3076923 C92.3934375,39.3076923 90.8690625,40.4672692 90,42.1153846" id="Stroke-71" stroke="#504B46" stroke-linecap="round" stroke-linejoin="round"></path>
                <path d="M77.1328125,54.75 C78.868125,56.3981154 81.9225,57.5576923 85.5703125,57.5576923 C89.218125,57.5576923 92.2725,56.3981154 94.0078125,54.75" id="Stroke-73" stroke="#504B46" stroke-linecap="round" stroke-linejoin="round"></path>
                <path d="M74.53125,50.5384615 C74.53125,52.0883077 73.27125,53.3461538 71.71875,53.3461538 C70.16625,53.3461538 68.90625,52.0883077 68.90625,50.5384615 C68.90625,48.9886154 70.16625,47.7307692 71.71875,47.7307692 C73.27125,47.7307692 74.53125,48.9886154 74.53125,50.5384615" id="Fill-75" fill="#FCCAB4"></path>
                <path d="M102.65625,50.5384615 C102.65625,52.0883077 101.39625,53.3461538 99.84375,53.3461538 C98.29125,53.3461538 97.03125,52.0883077 97.03125,50.5384615 C97.03125,48.9886154 98.29125,47.7307692 99.84375,47.7307692 C101.39625,47.7307692 102.65625,48.9886154 102.65625,50.5384615" id="Fill-77" fill="#FCCAB4"></path>
                <path d="M97.734375,12.9855769 C81.343125,-5.40480769 34.8046875,18.25 64.5103125,52.2062308 C61.6978125,43.7831538 66.09375,35.0961538 66.09375,35.0961538 C74.53125,35.0961538 89.2040625,27.4283462 95.2453125,19.7324615 C95.2425,19.9121538 95.2115625,20.0665769 95.2115625,20.2490769 C95.2115625,33.6923077 108.28125,33.6923077 108.28125,47.7307692 C122.695312,20.7067308 101.548125,10.3295 97.734375,12.9855769" id="Fill-79" fill="#9A6A4E"></path>
                <path d="M97.734375,12.9855769 C81.343125,-5.40480769 34.8046875,18.25 64.5103125,52.2062308 C61.6978125,43.7831538 66.09375,35.0961538 66.09375,35.0961538 C74.53125,35.0961538 89.2040625,27.4283462 95.2453125,19.7324615 C95.2425,19.9121538 95.2115625,20.0665769 95.2115625,20.2490769 C95.2115625,33.6923077 108.28125,33.6923077 108.28125,47.7307692 C122.695312,20.7067308 101.548125,10.3295 97.734375,12.9855769 L97.734375,12.9855769 Z" id="Stroke-81" stroke="#504B46" stroke-linejoin="round"></path>
                <path d="M97.3828125,12.7222154 C80.9915625,-5.66816923 34.453125,17.9866385 64.15875,51.9428692 C63.849375,51.0135231 63.6384375,50.0813692 63.489375,49.1548308 C49.185,23.0517154 79.633125,5.60471538 97.0228125,14.0895615 C99.1265625,15.1143692 97.3828125,12.7222154 97.3828125,12.7222154" id="Fill-83" fill="#AE8871"></path>
                <path d="M97.734375,12.9855769 C81.343125,-5.40480769 34.8046875,18.25 64.5103125,52.2062308 C61.6978125,43.7831538 66.09375,35.0961538 66.09375,35.0961538 C74.53125,35.0961538 89.2040625,27.4283462 95.2453125,19.7324615 C95.2425,19.9121538 95.2115625,20.0665769 95.2115625,20.2490769 C95.2115625,33.6923077 108.28125,33.6923077 108.28125,47.7307692 C122.695312,20.7067308 101.548125,10.3295 97.734375,12.9855769 L97.734375,12.9855769 Z" id="Stroke-85" stroke="#504B46" stroke-linejoin="round"></path>
                <path d="M25.3125,89.8461538 L25.3125,140.384615" id="Fill-102" fill="#FED75C"></path>
                <path d="M83.844,130.462512 C83.872125,130.434435 83.8974375,130.409165 83.9255625,130.381088 C83.9255625,130.409165 83.8974375,130.434435 83.872125,130.462512 L83.844,130.462512 Z" id="Fill-109" fill="#D1ECF4"></path>
                <path d="M83.844,130.462512 L83.872125,130.462512 C83.844,130.490588 83.815875,130.515858 83.7905625,130.543935 C83.7905625,130.515858 83.815875,130.490588 83.844,130.462512" id="Fill-110" fill="#F9E280"></path>
                <path d="M82.8767813,131.642585 C83.2002188,131.294431 83.4955313,130.9182 83.7908438,130.541969 C83.4955313,130.9182 83.2002188,131.266354 82.8767813,131.642585" id="Fill-111" fill="#F9E280"></path>
                <path d="M76.1340937,142.664462 C76.4040937,142.664462 76.6431562,142.692538 76.9131562,142.692538 L76.3759687,142.692538 C76.2944062,142.692538 76.2156562,142.692538 76.1340937,142.664462" id="Fill-113" fill="#F9E280"></path>
                <polygon id="Fill-122" fill="#D1ECF4" points="53.191125 141.645269 53.4864375 142.369654 53.191125 142.369654"></polygon>
                <polygon id="Fill-124" fill="#82C67C" points="53.191125 141.645269 52.94925 141.027577 53.191125 141.027577"></polygon>
            </g>
        </g>
    </g>
</svg>