<?xml version="1.0" encoding="UTF-8"?>
<svg width="179px" height="131px" viewBox="0 0 179 131" version="1.1" xmlns="http://www.w3.org/2000/svg" xmlns:xlink="http://www.w3.org/1999/xlink">
    <!-- Generator: sketchtool 42 (36781) - http://www.bohemiancoding.com/sketch -->
    <title>928EFA02-B39C-43F2-927B-2D03C0F27A76</title>
    <desc>Created with sketchtool.</desc>
    <defs></defs>
    <g id="Page-1" stroke="none" stroke-width="1" fill="none" fill-rule="evenodd">
        <g id="login-choose" transform="translate(-631.000000, -376.000000)">
            <g id="Millenial" transform="translate(631.000000, 376.000000)">
                <path d="M172.136188,123.538462 C176.555387,112.973115 179.005525,101.382962 179.005525,89.2228462 C179.005525,39.9450385 138.936257,0 89.5027624,0 C40.0720649,0 0,39.9450385 0,89.2228462 C0,101.382962 2.45013812,112.973115 6.87213398,123.538462 L172.136188,123.538462 Z" id="Fill-1" fill="#DEF9FC"></path>
                <path d="M150.988062,123.04 C156.148927,113.10384 159.103702,101.80496 159.103702,89.79616 C159.103702,50.3208 127.539031,18.32 88.6020761,18.32 C49.6651211,18.32 18.0977855,50.3208 18.0977855,89.79616 C18.0977855,101.80496 21.0525606,113.10384 26.21609,123.04 L150.988062,123.04 Z" id="Fill-4" fill="#C1F3F9"></path>
                <path d="M19.3287197,123.04 L14,123.04" id="Stroke-6" stroke="#504B46" stroke-linecap="round"></path>
                <path d="M163.204152,123.04 L157.875433,123.04" id="Stroke-8" stroke="#504B46" stroke-linecap="round"></path>
                <path d="M24.6574394,123.04 L152.546713,123.04" id="Stroke-10" stroke="#504B46" stroke-linecap="round"></path>
                <path d="M133.901522,127.12 C133.584464,127.12 133.262076,127.09008 132.939689,127.03296 L121.131246,124.82704 C120.88346,124.7808 120.641003,124.71552 120.403875,124.63664 C112.536021,121.96288 107.252595,114.47744 107.252595,106.00736 L107.252595,98.56 C107.252595,95.55984 109.64519,93.12 112.581315,93.12 C115.520104,93.12 117.910035,95.55984 117.910035,98.56 L117.910035,106.00736 C117.910035,109.68208 120.182734,112.9896 123.561142,114.2408 L134.852699,116.32704 C136.256817,116.59088 137.471765,117.39328 138.28173,118.58736 C139.089031,119.78416 139.395433,121.22848 139.139654,122.65648 C138.673391,125.24592 136.47263,127.12 133.901522,127.12 L133.901522,127.12 Z" id="Fill-13" fill="#B78B7C"></path>
                <path d="M133.901522,127.12 C133.584464,127.12 133.262076,127.09008 132.939689,127.03296 L121.131246,124.82704 C120.88346,124.7808 120.641003,124.71552 120.403875,124.63664 C112.536021,121.96288 107.252595,114.47744 107.252595,106.00736 L107.252595,98.56 C107.252595,95.55984 109.64519,93.12 112.581315,93.12 C115.520104,93.12 117.910035,95.55984 117.910035,98.56 L117.910035,106.00736 C117.910035,109.68208 120.182734,112.9896 123.561142,114.2408 L134.852699,116.32704 C136.256817,116.59088 137.471765,117.39328 138.28173,118.58736 C139.089031,119.78416 139.395433,121.22848 139.139654,122.65648 C138.673391,125.24592 136.47263,127.12 133.901522,127.12 L133.901522,127.12 Z" id="Stroke-15" stroke="#4F4A45"></path>
                <path d="M64.6228374,104 L64.6228374,123.04 L107.252595,123.04 L107.252595,104 L120.574394,104 L120.574394,102.64 C120.574394,87.61744 108.646055,75.44 93.9307958,75.44 L77.9446367,75.44 C63.2293772,75.44 51.3010381,87.61744 51.3010381,102.64 L51.3010381,104 L64.6228374,104 Z" id="Fill-17" fill="#99D56A"></path>
                <path d="M120.574394,102.64 C120.574394,87.61744 108.646055,75.44 93.9307958,75.44 L77.9446367,75.44 C63.2293772,75.44 51.3010381,87.61744 51.3010381,102.64 L51.3010381,105.36 C51.3010381,90.33744 63.2293772,86.32 77.9446367,86.32 L93.9307958,86.32 C108.646055,86.32 120.574394,90.33744 120.574394,105.36 L120.574394,102.64 Z" id="Fill-19" fill="#B3E090"></path>
                <path d="M85.9377163,91.76 C93.2940138,91.76 99.2595156,85.66992 99.2595156,78.16 L99.2595156,75.98672 C97.5383391,75.6304 95.7558824,75.44 93.9307958,75.44 L77.9446367,75.44 C76.1195502,75.44 74.3370934,75.6304 72.615917,75.98672 L72.615917,78.16 C72.615917,85.66992 78.5814187,91.76 85.9377163,91.76" id="Fill-21" fill="#FFE086"></path>
                <path d="M99.2595156,76.8 L99.2595156,78.16 C99.2595156,85.66992 93.2940138,91.76 85.9377163,91.76 C78.5814187,91.76 72.615917,85.66992 72.615917,78.16 L72.615917,76.8" id="Stroke-23" stroke="#504B46" stroke-linecap="round" stroke-linejoin="round"></path>
                <path d="M107.252595,97.2 L107.252595,95.84" id="Stroke-25" stroke="#504B46" stroke-linecap="round" stroke-linejoin="round"></path>
                <polyline id="Stroke-27" stroke="#504B46" stroke-linecap="round" stroke-linejoin="round" points="64.6228374 101.28 64.6228374 123.04 107.252595 123.04 107.252595 101.28"></polyline>
                <path d="M107.252595,104 L107.252595,104 L120.574394,104 L120.574394,102.64 C120.574394,87.61744 108.646055,75.44 93.9307958,75.44 L77.9446367,75.44 C63.2293772,75.44 51.3010381,87.61744 51.3010381,102.64 L51.3010381,104 L64.6228374,104" id="Stroke-29" stroke="#504B46" stroke-linecap="round" stroke-linejoin="round"></path>
                <path d="M64.6228374,106.72 L64.6228374,104" id="Fill-31" fill="#EDF2F4"></path>
                <path d="M64.6228374,106.72 L64.6228374,104" id="Stroke-33" stroke="#504B46" stroke-linecap="round" stroke-linejoin="round"></path>
                <path d="M93.9307958,77.87304 C93.9307958,80.6012 92.5959516,83.14984 90.3712111,84.66216 C87.6855363,86.49 84.1898962,86.49 81.5042215,84.66216 C79.279481,83.14984 77.9446367,80.6012 77.9446367,77.87304 L77.9446367,65.92136 L93.9307958,65.92136 L93.9307958,77.87304 Z" id="Fill-35" fill="#B78B7C"></path>
                <path d="M93.9307958,77.87304 C93.9307958,80.6012 92.5959516,83.14984 90.3712111,84.66216 C87.6855363,86.49 84.1898962,86.49 81.5042215,84.66216 C79.279481,83.14984 77.9446367,80.6012 77.9446367,77.87304 L77.9446367,65.92136 L93.9307958,65.92136 L93.9307958,77.87304 L93.9307958,77.87304 Z" id="Stroke-37" stroke="#504B46" stroke-linecap="round" stroke-linejoin="round"></path>
                <path d="M77.9446367,75.148416 C78.147128,75.240896 78.3362976,75.344256 78.5494464,75.428576 C83.0229066,77.256416 88.852526,77.256416 93.3259862,75.428576 C93.5391349,75.344256 93.7283045,75.240896 93.9307958,75.148416 L93.9307958,65.919456 L77.9446367,65.919456 L77.9446367,75.148416 Z" id="Fill-39" fill="#A56F5B"></path>
                <path d="M93.9307958,77.87304 C93.9307958,80.6012 92.5959516,83.14984 90.3712111,84.66216 C87.6855363,86.49 84.1898962,86.49 81.5042215,84.66216 C79.279481,83.14984 77.9446367,80.6012 77.9446367,77.87304 L77.9446367,65.92136 L93.9307958,65.92136 L93.9307958,77.87304 L93.9307958,77.87304 Z" id="Stroke-41" stroke="#504B46" stroke-linecap="round" stroke-linejoin="round"></path>
                <path d="M64.6228374,97.2 L64.6228374,95.84" id="Stroke-43" stroke="#504B46" stroke-linecap="round" stroke-linejoin="round"></path>
                <polygon id="Fill-45" fill="#B78B7C" points="53.9653979 123.04 64.6228374 123.04 64.6228374 104 53.9653979 104"></polygon>
                <polygon id="Stroke-47" stroke="#504B46" stroke-linecap="round" stroke-linejoin="round" points="53.9653979 123.04 64.6228374 123.04 64.6228374 104 53.9653979 104"></polygon>
                <path d="M144.553633,127.12 C144.553633,128.62144 143.36,129.84 141.889273,129.84 L131.231834,129.84 C129.761107,129.84 128.567474,128.62144 128.567474,127.12 L128.567474,102.64 C128.567474,101.13856 129.761107,99.92 131.231834,99.92 L141.889273,99.92 C143.36,99.92 144.553633,101.13856 144.553633,102.64 L144.553633,127.12 Z" id="Fill-48" fill="#E3ECF0"></path>
                <path d="M144.553633,127.12 C144.553633,128.62144 143.36,129.84 141.889273,129.84 L131.231834,129.84 C129.761107,129.84 128.567474,128.62144 128.567474,127.12 L128.567474,102.64 C128.567474,101.13856 129.761107,99.92 131.231834,99.92 L141.889273,99.92 C143.36,99.92 144.553633,101.13856 144.553633,102.64 L144.553633,127.12 L144.553633,127.12 Z" id="Stroke-49" stroke="#504B46" stroke-linecap="round" stroke-linejoin="round"></path>
                <path d="M135.228374,105.36 C135.228374,106.11072 134.631557,106.72 133.896194,106.72 C133.16083,106.72 132.564014,106.11072 132.564014,105.36 C132.564014,104.60928 133.16083,104 133.896194,104 C134.631557,104 135.228374,104.60928 135.228374,105.36" id="Fill-50" fill="#504B46"></path>
                <path d="M147.010972,125.76 L138.959277,125.76 C135.426336,125.76 132.564813,122.836 132.564813,119.232 L132.564813,115.968 C132.564813,112.364 135.426336,109.44 138.959277,109.44 L147.010972,109.44 C149.062529,114.67872 149.062529,120.52128 147.010972,125.76" id="Fill-51" fill="#B78B7C"></path>
                <path d="M135.228374,123.312 L135.228374,120.048 C135.228374,116.44128 138.092561,113.52 141.622837,113.52 L148.174498,113.52 C147.916055,112.13552 147.529723,110.76736 147.010173,109.44 L138.958478,109.44 C135.428201,109.44 132.564014,112.36128 132.564014,115.968 L132.564014,119.232 C132.564014,121.47328 133.672388,123.448 135.358927,124.62304 C135.273668,124.19872 135.228374,123.7608 135.228374,123.312" id="Fill-52" fill="#CCA196"></path>
                <path d="M147.673332,123.807856 C147.340287,124.963856 146.298522,125.760816 145.118211,125.760816 L138.958211,125.760816 C135.427934,125.760816 132.563747,122.836816 132.563747,119.232816 L132.563747,115.968816 C132.563747,112.362096 135.427934,109.440816 138.958211,109.440816 L145.118211,109.440816 C146.301187,109.440816 147.340287,110.235056 147.673332,111.391056 C148.842986,115.443856 148.842986,119.755056 147.673332,123.807856 L147.673332,123.807856 Z" id="Stroke-53" stroke="#504B46" stroke-linecap="round" stroke-linejoin="round"></path>
                <path d="M111.249135,44.163264 C111.249135,41.630944 109.546609,39.522944 107.252595,38.916384 L107.252595,37.363264 C107.252595,25.346304 97.7088581,15.603264 85.9377163,15.603264 C74.1665744,15.603264 64.6228374,25.346304 64.6228374,37.363264 L64.6228374,38.916384 C62.3288235,39.522944 60.6262976,41.630944 60.6262976,44.163264 C60.6262976,46.717344 62.3554671,48.844384 64.6814533,49.429184 C65.2889273,60.891264 74.5582353,70.003264 85.9377163,70.003264 C97.3171972,70.003264 106.586505,60.891264 107.193979,49.429184 C109.519965,48.844384 111.249135,46.717344 111.249135,44.163264" id="Fill-60" fill="#B78B7C"></path>
                <path d="M111.249135,44.163264 C111.249135,41.630944 109.546609,39.522944 107.252595,38.916384 L107.252595,37.363264 C107.252595,25.346304 97.7088581,15.603264 85.9377163,15.603264 C74.1665744,15.603264 64.6228374,25.346304 64.6228374,37.363264 L64.6228374,38.916384 C62.3288235,39.522944 60.6262976,41.630944 60.6262976,44.163264 C60.6262976,46.717344 62.3554671,48.844384 64.6814533,49.429184 C65.2889273,60.891264 74.5582353,70.003264 85.9377163,70.003264 C97.3171972,70.003264 106.586505,60.891264 107.193979,49.429184 C109.519965,48.844384 111.249135,46.717344 111.249135,44.163264 L111.249135,44.163264 Z" id="Stroke-61" stroke="#504B46" stroke-linecap="round" stroke-linejoin="round"></path>
                <path d="M98.8598616,24.353232 L98.8598616,28.025232 C98.8598616,31.066192 101.609481,33.533232 104.588235,33.533232 L104.588235,39.041232 C104.588235,41.070352 106.197509,42.713232 108.185121,42.713232 L112.581315,42.713232 L112.581315,26.684272 C112.581315,20.599632 108.339654,15.173232 102.379481,15.173232 L102.379481,15.589392 C102.379481,12.591952 100.000208,10.160272 97.0614187,10.160272 L72.557301,10.160272 C68.2117301,10.160272 64.6894464,13.756112 64.6894464,18.192432 L64.6894464,19.340272 C61.710692,19.340272 59.2941176,21.807312 59.2941176,24.848272 L59.2941176,42.713232 L64.6894464,42.713232 C66.6770588,42.713232 68.6193772,41.070352 68.6193772,39.041232 L68.6193772,33.533232 C79.4100346,37.205232 98.8598616,31.697232 98.8598616,24.353232" id="Fill-62" fill="#775750"></path>
                <path d="M99.2595156,23.76 C99.003737,26.48 97.5756401,33.53296 104.588235,33.53296 L104.588235,39.04096 C104.588235,41.07008 106.197509,42.71296 108.185121,42.71296 L112.581315,42.71296 L112.581315,26.48 C112.581315,20.39536 108.339654,15.17296 102.379481,15.17296 C102.379481,17.89296 103.144152,10.16 97.0614187,10.16 L72.557301,10.16 C68.6966436,10.16 64.6894464,12.744 64.6894464,19.68 C61.710692,19.68 59.2941176,21.80704 59.2941176,24.848 L59.2941176,42.71296 L64.6894464,42.71296 C66.6770588,42.71296 68.6193772,41.07008 68.6193772,39.04096 L68.6193772,33.53296 C79.4100346,37.20496 99.2595156,31.104 99.2595156,23.76 L99.2595156,23.76 Z" id="Stroke-63" stroke="#504B46" stroke-linejoin="round"></path>
                <path d="M81.9411765,45.523264 C81.1178893,43.926624 79.6738062,42.803264 77.9446367,42.803264 C76.2154671,42.803264 74.7713841,43.926624 73.9480969,45.523264" id="Stroke-64" stroke="#504B46" stroke-linecap="round" stroke-linejoin="round"></path>
                <path d="M97.9273356,45.523264 C97.1040484,43.926624 95.6599654,42.803264 93.9307958,42.803264 C92.2016263,42.803264 90.7575433,43.926624 89.9342561,45.523264" id="Stroke-65" stroke="#504B46" stroke-linecap="round" stroke-linejoin="round"></path>
                <path d="M77.7448097,57.763264 C79.3887197,59.359904 82.2822145,60.483264 85.7378893,60.483264 C89.193564,60.483264 92.0870588,59.359904 93.7309689,57.763264" id="Stroke-66" stroke="#504B46" stroke-linecap="round" stroke-linejoin="round"></path>
                <path d="M75.2802768,53.683264 C75.2802768,55.184704 74.0866436,56.403264 72.615917,56.403264 C71.1451903,56.403264 69.9515571,55.184704 69.9515571,53.683264 C69.9515571,52.181824 71.1451903,50.963264 72.615917,50.963264 C74.0866436,50.963264 75.2802768,52.181824 75.2802768,53.683264" id="Fill-67" fill="#A56F5B"></path>
                <path d="M101.923875,53.683264 C101.923875,55.184704 100.730242,56.403264 99.2595156,56.403264 C97.7887889,56.403264 96.5951557,55.184704 96.5951557,53.683264 C96.5951557,52.181824 97.7887889,50.963264 99.2595156,50.963264 C100.730242,50.963264 101.923875,52.181824 101.923875,53.683264" id="Fill-68" fill="#A56F5B"></path>
                <path d="M85.2716263,18.323264 C96.7070588,18.323264 106.751696,21.761344 112.581315,26.953824 L112.581315,26.480544 C112.581315,20.395904 108.339654,15.173504 102.382145,15.173504 C102.382145,15.241504 102.382145,15.274144 102.38481,15.328544 C102.243599,14.039264 101.375017,10.160544 97.0614187,10.160544 L72.557301,10.160544 C68.6966436,10.160544 64.6894464,12.741824 64.6894464,19.680544 C61.710692,19.680544 59.2941176,21.804864 59.2941176,24.848544 L59.2941176,25.871264 C65.2542907,21.293504 74.6568166,18.323264 85.2716263,18.323264" id="Fill-69" fill="#87625D"></path>
                <path d="M99.2595156,23.76 C99.003737,26.48 97.5756401,33.53296 104.588235,33.53296 L104.588235,39.04096 C104.588235,41.07008 106.197509,42.71296 108.185121,42.71296 L112.581315,42.71296 L112.581315,26.48 C112.581315,20.39536 108.339654,15.17296 102.379481,15.17296 C102.379481,17.89296 103.144152,10.16 97.0614187,10.16 L72.557301,10.16 C68.6966436,10.16 64.6894464,12.744 64.6894464,19.68 C61.710692,19.68 59.2941176,21.80704 59.2941176,24.848 L59.2941176,42.71296 L64.6894464,42.71296 C66.6770588,42.71296 68.6193772,41.07008 68.6193772,39.04096 L68.6193772,33.53296 C79.4100346,37.20496 99.2595156,31.104 99.2595156,23.76 L99.2595156,23.76 Z" id="Stroke-70" stroke="#504B46" stroke-linejoin="round"></path>
            </g>
        </g>
    </g>
</svg>